<svg id="Layer_5" data-name="Layer 5" xmlns="http://www.w3.org/2000/svg" viewBox="0 0 154.38 180.12">
  <defs>
    <style>
      .cls-1 {
        fill: #ea7750;
      }

      .cls-2 {
        fill: #fff;
      }

      .cls-3 {
        fill: #5c6569;
      }
    </style>
  </defs>
  <title>business</title>
  <g>
    <path class="cls-1" d="M2410-221.78v19.3a12.86,12.86,0,0,0,12.87,12.87h12.86a25.73,25.73,0,0,1,25.73,25.73V-151H2320v-12.87a25.73,25.73,0,0,1,25.73-25.73h12.87a12.86,12.86,0,0,0,12.87-12.87v-19.3H2410Z" transform="translate(-2313.53 324.71)"/>
    <path class="cls-2" d="M2429.32-266.81c0,28.42-17.28,51.46-38.6,51.46s-38.6-23-38.6-51.46,17.28-51.46,38.6-51.46,38.6,23,38.6,51.46" transform="translate(-2313.53 324.71)"/>
    <path class="cls-3" d="M2390.73-208.92c-24.83,0-45-26-45-57.89s20.2-57.89,45-57.89,45,26,45,57.89S2415.56-208.92,2390.73-208.92Zm0-102.92c-17.73,0-32.16,20.2-32.16,45s14.43,45,32.16,45,32.16-20.2,32.16-45S2408.46-311.84,2390.73-311.84Z" transform="translate(-2313.53 324.71)"/>
    <path class="cls-3" d="M2461.49-144.59H2320a6.43,6.43,0,0,1-6.43-6.43v-12.87a32.2,32.2,0,0,1,32.16-32.16h12.87a6.44,6.44,0,0,0,6.43-6.43v-19.3a6.43,6.43,0,0,1,6.43-6.43,6.43,6.43,0,0,1,6.43,6.43v19.3a19.32,19.32,0,0,1-19.3,19.3H2345.7a19.32,19.32,0,0,0-19.3,19.3v6.43h128.65v-6.43a19.32,19.32,0,0,0-19.3-19.3h-12.86a19.32,19.32,0,0,1-19.3-19.3v-19.3a6.43,6.43,0,0,1,6.43-6.43,6.43,6.43,0,0,1,6.43,6.43v19.3a6.44,6.44,0,0,0,6.43,6.43h12.86a32.2,32.2,0,0,1,32.16,32.16V-151A6.43,6.43,0,0,1,2461.49-144.59Z" transform="translate(-2313.53 324.71)"/>
    <path class="cls-3" d="M2390.73-170.32c-18.34,0-32.16-8.3-32.16-19.3a6.43,6.43,0,0,1,6.43-6.43,6.43,6.43,0,0,1,6.43,6.43c0,1.6,6.84,6.43,19.3,6.43s19.3-4.83,19.3-6.43a6.43,6.43,0,0,1,6.43-6.43,6.43,6.43,0,0,1,6.43,6.43C2422.89-178.62,2409.06-170.32,2390.73-170.32Z" transform="translate(-2313.53 324.71)"/>
  </g>
</svg>
