<svg id="Layer_5" data-name="Layer 5" xmlns="http://www.w3.org/2000/svg" viewBox="0 0 169.08 169.08"><defs><style>.cls-1{fill:#e7c144;}.cls-2{fill:#e2ac45;}.cls-3{fill:#5c6569;}.cls-4{fill:none;}</style></defs><title>find</title><polygon class="cls-1" points="41.55 110.97 20.41 153.24 136.66 153.24 115.53 110.97 41.55 110.97"/><path class="cls-2" d="M1879.22-648.59A47.55,47.55,0,0,0,1831.66-601c0,31.54,47.56,68.69,47.56,68.69s47.55-37.15,47.55-68.69a47.55,47.55,0,0,0-47.55-47.56m0,63.41A15.85,15.85,0,0,1,1863.37-601a15.85,15.85,0,0,1,15.85-15.85A15.85,15.85,0,0,1,1895.07-601a15.85,15.85,0,0,1-15.85,15.85" transform="translate(-1794.68 664.45)"/><path class="cls-3" d="M1879.22-527.06a5.29,5.29,0,0,1-3.25-1.12c-2-1.58-49.59-39.13-49.59-72.85a52.9,52.9,0,0,1,52.84-52.84A52.9,52.9,0,0,1,1932.06-601c0,33.73-47.56,71.27-49.59,72.85A5.29,5.29,0,0,1,1879.22-527.06Zm0-116.25A42.32,42.32,0,0,0,1836.95-601c0,24,31.85,53,42.27,61.85,10.42-8.84,42.27-37.82,42.27-61.85A42.32,42.32,0,0,0,1879.22-643.31Z" transform="translate(-1794.68 664.45)"/><path class="cls-3" d="M1879.22-579.9A21.16,21.16,0,0,1,1858.08-601a21.16,21.16,0,0,1,21.14-21.14A21.16,21.16,0,0,1,1900.35-601,21.16,21.16,0,0,1,1879.22-579.9Zm0-31.7A10.58,10.58,0,0,0,1868.65-601a10.58,10.58,0,0,0,10.57,10.57A10.58,10.58,0,0,0,1889.79-601,10.58,10.58,0,0,0,1879.22-611.61Z" transform="translate(-1794.68 664.45)"/><path class="cls-3" d="M1937.34-505.93H1821.1a5.28,5.28,0,0,1-4.49-2.5,5.29,5.29,0,0,1-.23-5.14l21.14-42.27a5.29,5.29,0,0,1,4.73-2.92h15.85v10.57H1845.5l-15.85,31.7h99.14l-15.85-31.7h-12.59v-10.57h15.85a5.29,5.29,0,0,1,4.73,2.92l21.13,42.27a5.29,5.29,0,0,1-.23,5.14A5.28,5.28,0,0,1,1937.34-505.93Z" transform="translate(-1794.68 664.45)"/><rect class="cls-4" width="169.08" height="169.08"/></svg>