<svg id="Layer_5" data-name="Layer 5" xmlns="http://www.w3.org/2000/svg" viewBox="0 0 205.85 205.85"><defs><style>.cls-1{fill:#ea7750;}.cls-2{fill:#e2ac45;}.cls-3{fill:#5c6569;}.cls-4{fill:none;}</style></defs><title>member-directory</title><polygon class="cls-1" points="50.59 135.09 24.85 186.56 166.38 186.56 140.65 135.09 50.59 135.09"/><path class="cls-2" d="M1942.24-313a57.89,57.89,0,0,0-57.9,57.9c0,38.4,57.9,83.63,57.9,83.63s57.89-45.23,57.89-83.63a57.89,57.89,0,0,0-57.89-57.9m0,77.19a19.3,19.3,0,0,1-19.3-19.3,19.3,19.3,0,0,1,19.3-19.3,19.3,19.3,0,0,1,19.3,19.3,19.3,19.3,0,0,1-19.3,19.3" transform="translate(-1839.32 332.28)"/><path class="cls-3" d="M1942.24-165a6.44,6.44,0,0,1-4-1.36c-2.47-1.93-60.37-47.63-60.37-88.7a64.4,64.4,0,0,1,64.33-64.33,64.4,64.4,0,0,1,64.33,64.33c0,41.06-57.9,86.77-60.37,88.7A6.44,6.44,0,0,1,1942.24-165Zm0-141.52a51.52,51.52,0,0,0-51.46,51.46c0,29.25,38.78,64.53,51.46,75.29,12.69-10.76,51.46-46,51.46-75.29A51.52,51.52,0,0,0,1942.24-306.54Z" transform="translate(-1839.32 332.28)"/><path class="cls-3" d="M1942.24-229.34a25.76,25.76,0,0,1-25.73-25.73,25.76,25.76,0,0,1,25.73-25.73A25.76,25.76,0,0,1,1968-255.08,25.76,25.76,0,0,1,1942.24-229.34Zm0-38.6a12.88,12.88,0,0,0-12.87,12.87,12.88,12.88,0,0,0,12.87,12.87,12.88,12.88,0,0,0,12.87-12.87A12.88,12.88,0,0,0,1942.24-267.94Z" transform="translate(-1839.32 332.28)"/><path class="cls-3" d="M2013-139.29H1871.48a6.43,6.43,0,0,1-5.47-3,6.44,6.44,0,0,1-.28-6.26l25.73-51.46a6.44,6.44,0,0,1,5.75-3.56h19.3v12.87h-15.32l-19.3,38.6h120.7l-19.3-38.6H1968v-12.87h19.3a6.44,6.44,0,0,1,5.75,3.56l25.73,51.46a6.44,6.44,0,0,1-.28,6.26A6.43,6.43,0,0,1,2013-139.29Z" transform="translate(-1839.32 332.28)"/><rect class="cls-4" width="205.85" height="205.85"/></svg>