<?xml version="1.0" encoding="utf-8"?>
<!-- Generator: Adobe Illustrator 21.0.1, SVG Export Plug-In . SVG Version: 6.00 Build 0)  -->
<svg version="1.1" id="Layer_1" xmlns="http://www.w3.org/2000/svg" xmlns:xlink="http://www.w3.org/1999/xlink" x="0px" y="0px"
	 viewBox="0 0 234 231" style="enable-background:new 0 0 234 231;" xml:space="preserve">
<style type="text/css">
	.st0{fill:#5D6264;}
	.st1{fill:#E87855;}
	.st2{fill:#E1AC4F;}
	.st3{fill:#F3F1E5;}
	.st4{fill:#EFC419;}
	.st5{fill:#9CD8D5;}
	.st6{fill:#7E8588;}
	.st7{fill:#FFFFFF;}
	.st8{fill:#EFC41A;}
	.st9{fill-rule:evenodd;clip-rule:evenodd;fill:#FFFFFF;}
	.st10{fill-rule:evenodd;clip-rule:evenodd;fill:#5D6264;}
	.st11{opacity:0.48;}
	.st12{fill-rule:evenodd;clip-rule:evenodd;fill:#7E8588;}
	.st13{fill:#E6C045;}
	.st14{fill:#5D666A;}
	.st15{fill:none;stroke:#CFCFCE;stroke-width:0.5;stroke-miterlimit:10;}
	.st16{fill:#9AD7D4;}
	.st17{fill:#E87855;stroke:#5D666A;stroke-width:12;stroke-miterlimit:10;}
	.st18{fill:#9CD8D5;stroke:#5D666A;stroke-width:12;stroke-miterlimit:10;}
	.st19{fill:#EFC419;stroke:#5D666A;stroke-width:12;stroke-miterlimit:10;}
	.st20{fill:#9CD8D5;stroke:#5D6264;stroke-width:5;stroke-miterlimit:10;}
</style>
<g>
	<polygon class="st5" points="133,212.2 145.1,77.3 219.7,65.3 213.7,212.2 	"/>
	<polygon class="st4" points="8.3,12.8 20.3,212.2 133,212.2 133,40.6 	"/>
	<polygon class="st1" points="65.2,178.6 65.2,212.2 100.1,212.2 88,178.6 	"/>
	<g>
		<path class="st14" d="M219.7,65.3h-74.7V35.6c0-2.9-2.1-5.4-5-6L15.4,6.9c-3.7-0.7-7.1,2.2-7.1,6v205.4c0,3.3,2.7,6,6,6h205.4
			c3.3,0,6-2.7,6-6V71.3C225.8,68,223.1,65.3,219.7,65.3z M88,212.2H65.2v-33.6H88V212.2z M133,212.2h-32.8v-39.6c0-3.3-2.7-6-6-6
			H59.3c-3.3,0-6,2.7-6,6v39.6H20.3V20L133,40.6L133,212.2L133,212.2z M213.7,212.2h-68.6V77.3h68.6V212.2z"/>
		<path class="st14" d="M161.8,102.3h35.1c3.3,0,6-2.7,6-6s-2.7-6-6-6h-35.1c-3.3,0-6,2.7-6,6S158.5,102.3,161.8,102.3z"/>
		<path class="st14" d="M161.8,126.6h35.1c3.3,0,6-2.7,6-6c0-3.3-2.7-6-6-6h-35.1c-3.3,0-6,2.7-6,6S158.5,126.6,161.8,126.6z"/>
		<path class="st14" d="M161.8,150.8h35.1c3.3,0,6-2.7,6-6c0-3.3-2.7-6-6-6h-35.1c-3.3,0-6,2.7-6,6
			C155.8,148.1,158.5,150.8,161.8,150.8z"/>
		<path class="st14" d="M161.8,175.1h35.1c3.3,0,6-2.7,6-6s-2.7-6-6-6h-35.1c-3.3,0-6,2.7-6,6S158.5,175.1,161.8,175.1z"/>
		<path class="st14" d="M161.8,199.3h35.1c3.3,0,6-2.7,6-6c0-3.3-2.7-6-6-6h-35.1c-3.3,0-6,2.7-6,6
			C155.8,196.6,158.5,199.3,161.8,199.3z"/>
		<path class="st14" d="M37.3,59.9h10.8c3.3,0,6-2.7,6-6s-2.7-6-6-6H37.3c-3.3,0-6,2.7-6,6S34,59.9,37.3,59.9z"/>
		<path class="st14" d="M71.3,59.9h10.8c3.3,0,6-2.7,6-6s-2.7-6-6-6H71.3c-3.3,0-6,2.7-6,6S67.9,59.9,71.3,59.9z"/>
		<path class="st14" d="M105.2,59.9H116c3.3,0,6-2.7,6-6s-2.7-6-6-6h-10.8c-3.3,0-6,2.7-6,6S101.9,59.9,105.2,59.9z"/>
		<path class="st14" d="M37.3,83.5h10.8c3.3,0,6-2.7,6-6s-2.7-6-6-6H37.3c-3.3,0-6,2.7-6,6C31.3,80.8,34,83.5,37.3,83.5z"/>
		<path class="st14" d="M71.3,83.5h10.8c3.3,0,6-2.7,6-6s-2.7-6-6-6H71.3c-3.3,0-6,2.7-6,6C65.2,80.8,67.9,83.5,71.3,83.5z"/>
		<path class="st14" d="M105.2,83.5H116c3.3,0,6-2.7,6-6s-2.7-6-6-6h-10.8c-3.3,0-6,2.7-6,6S101.9,83.5,105.2,83.5z"/>
		<path class="st14" d="M37.3,107.1h10.8c3.3,0,6-2.7,6-6s-2.7-6-6-6H37.3c-3.3,0-6,2.7-6,6C31.3,104.4,34,107.1,37.3,107.1z"/>
		<path class="st14" d="M71.3,107.1h10.8c3.3,0,6-2.7,6-6s-2.7-6-6-6H71.3c-3.3,0-6,2.7-6,6C65.2,104.4,67.9,107.1,71.3,107.1z"/>
		<path class="st14" d="M105.2,107.1H116c3.3,0,6-2.7,6-6s-2.7-6-6-6h-10.8c-3.3,0-6,2.7-6,6S101.9,107.1,105.2,107.1z"/>
		<path class="st14" d="M37.3,130.8h10.8c3.3,0,6-2.7,6-6c0-3.3-2.7-6-6-6H37.3c-3.3,0-6,2.7-6,6C31.3,128.1,34,130.8,37.3,130.8z"
			/>
		<path class="st14" d="M71.3,130.8h10.8c3.3,0,6-2.7,6-6c0-3.3-2.7-6-6-6H71.3c-3.3,0-6,2.7-6,6C65.2,128.1,67.9,130.8,71.3,130.8z
			"/>
		<path class="st14" d="M105.2,130.8H116c3.3,0,6-2.7,6-6c0-3.3-2.7-6-6-6h-10.8c-3.3,0-6,2.7-6,6
			C99.2,128.1,101.9,130.8,105.2,130.8z"/>
		<path class="st14" d="M37.3,154.4h10.8c3.3,0,6-2.7,6-6c0-3.3-2.7-6-6-6H37.3c-3.3,0-6,2.7-6,6C31.3,151.7,34,154.4,37.3,154.4z"
			/>
		<path class="st14" d="M71.3,154.4h10.8c3.3,0,6-2.7,6-6c0-3.3-2.7-6-6-6H71.3c-3.3,0-6,2.7-6,6C65.2,151.7,67.9,154.4,71.3,154.4z
			"/>
		<path class="st14" d="M105.2,154.4H116c3.3,0,6-2.7,6-6c0-3.3-2.7-6-6-6h-10.8c-3.3,0-6,2.7-6,6
			C99.2,151.7,101.9,154.4,105.2,154.4z"/>
	</g>
</g>
</svg>
