<?xml version="1.0" encoding="UTF-8"?>
<svg width="218px" height="219px" viewBox="0 0 218 219" version="1.1" xmlns="http://www.w3.org/2000/svg" xmlns:xlink="http://www.w3.org/1999/xlink">
    <!-- Generator: Sketch 43.2 (39069) - http://www.bohemiancoding.com/sketch -->
    <title>agency</title>
    <desc>Created with Sketch.</desc>
    <defs></defs>
    <g id="Page-1" stroke="none" stroke-width="1" fill="none" fill-rule="evenodd">
        <g id="agency" fill-rule="nonzero">
            <polygon id="Shape" fill="#9CD8D5" points="125 206.2 137.1 71.3 211.7 59.3 205.7 206.2"></polygon>
            <polygon id="Shape" fill="#EFC419" points="0.3 6.8 12.3 206.2 125 206.2 125 34.6"></polygon>
            <polygon id="Shape" fill="#E87855" points="57.2 172.6 57.2 206.2 92.1 206.2 80 172.6"></polygon>
            <g id="Group" fill="#5D666A">
                <path d="M211.7,59.3 L137,59.3 L137,29.6 C137,26.7 134.9,24.2 132,23.6 L7.4,0.9 C3.7,0.2 0.3,3.1 0.3,6.9 L0.3,212.3 C0.3,215.6 3,218.3 6.3,218.3 L211.7,218.3 C215,218.3 217.7,215.6 217.7,212.3 L217.7,65.3 C217.8,62 215.1,59.3 211.7,59.3 Z M80,206.2 L57.2,206.2 L57.2,172.6 L80,172.6 L80,206.2 Z M125,206.2 L92.2,206.2 L92.2,166.6 C92.2,163.3 89.5,160.6 86.2,160.6 L51.3,160.6 C48,160.6 45.3,163.3 45.3,166.6 L45.3,206.2 L12.3,206.2 L12.3,14 L125,34.6 L125,206.2 L125,206.2 Z M205.7,206.2 L137.1,206.2 L137.1,71.3 L205.7,71.3 L205.7,206.2 Z" id="Shape"></path>
                <path d="M153.8,96.3 L188.9,96.3 C192.2,96.3 194.9,93.6 194.9,90.3 C194.9,87 192.2,84.3 188.9,84.3 L153.8,84.3 C150.5,84.3 147.8,87 147.8,90.3 C147.8,93.6 150.5,96.3 153.8,96.3 Z" id="Shape"></path>
                <path d="M153.8,120.6 L188.9,120.6 C192.2,120.6 194.9,117.9 194.9,114.6 C194.9,111.3 192.2,108.6 188.9,108.6 L153.8,108.6 C150.5,108.6 147.8,111.3 147.8,114.6 C147.8,117.9 150.5,120.6 153.8,120.6 Z" id="Shape"></path>
                <path d="M153.8,144.8 L188.9,144.8 C192.2,144.8 194.9,142.1 194.9,138.8 C194.9,135.5 192.2,132.8 188.9,132.8 L153.8,132.8 C150.5,132.8 147.8,135.5 147.8,138.8 C147.8,142.1 150.5,144.8 153.8,144.8 Z" id="Shape"></path>
                <path d="M153.8,169.1 L188.9,169.1 C192.2,169.1 194.9,166.4 194.9,163.1 C194.9,159.8 192.2,157.1 188.9,157.1 L153.8,157.1 C150.5,157.1 147.8,159.8 147.8,163.1 C147.8,166.4 150.5,169.1 153.8,169.1 Z" id="Shape"></path>
                <path d="M153.8,193.3 L188.9,193.3 C192.2,193.3 194.9,190.6 194.9,187.3 C194.9,184 192.2,181.3 188.9,181.3 L153.8,181.3 C150.5,181.3 147.8,184 147.8,187.3 C147.8,190.6 150.5,193.3 153.8,193.3 Z" id="Shape"></path>
                <path d="M29.3,53.9 L40.1,53.9 C43.4,53.9 46.1,51.2 46.1,47.9 C46.1,44.6 43.4,41.9 40.1,41.9 L29.3,41.9 C26,41.9 23.3,44.6 23.3,47.9 C23.3,51.2 26,53.9 29.3,53.9 Z" id="Shape"></path>
                <path d="M63.3,53.9 L74.1,53.9 C77.4,53.9 80.1,51.2 80.1,47.9 C80.1,44.6 77.4,41.9 74.1,41.9 L63.3,41.9 C60,41.9 57.3,44.6 57.3,47.9 C57.3,51.2 59.9,53.9 63.3,53.9 Z" id="Shape"></path>
                <path d="M97.2,53.9 L108,53.9 C111.3,53.9 114,51.2 114,47.9 C114,44.6 111.3,41.9 108,41.9 L97.2,41.9 C93.9,41.9 91.2,44.6 91.2,47.9 C91.2,51.2 93.9,53.9 97.2,53.9 Z" id="Shape"></path>
                <path d="M29.3,77.5 L40.1,77.5 C43.4,77.5 46.1,74.8 46.1,71.5 C46.1,68.2 43.4,65.5 40.1,65.5 L29.3,65.5 C26,65.5 23.3,68.2 23.3,71.5 C23.3,74.8 26,77.5 29.3,77.5 Z" id="Shape"></path>
                <path d="M63.3,77.5 L74.1,77.5 C77.4,77.5 80.1,74.8 80.1,71.5 C80.1,68.2 77.4,65.5 74.1,65.5 L63.3,65.5 C60,65.5 57.3,68.2 57.3,71.5 C57.2,74.8 59.9,77.5 63.3,77.5 Z" id="Shape"></path>
                <path d="M97.2,77.5 L108,77.5 C111.3,77.5 114,74.8 114,71.5 C114,68.2 111.3,65.5 108,65.5 L97.2,65.5 C93.9,65.5 91.2,68.2 91.2,71.5 C91.2,74.8 93.9,77.5 97.2,77.5 Z" id="Shape"></path>
                <path d="M29.3,101.1 L40.1,101.1 C43.4,101.1 46.1,98.4 46.1,95.1 C46.1,91.8 43.4,89.1 40.1,89.1 L29.3,89.1 C26,89.1 23.3,91.8 23.3,95.1 C23.3,98.4 26,101.1 29.3,101.1 Z" id="Shape"></path>
                <path d="M63.3,101.1 L74.1,101.1 C77.4,101.1 80.1,98.4 80.1,95.1 C80.1,91.8 77.4,89.1 74.1,89.1 L63.3,89.1 C60,89.1 57.3,91.8 57.3,95.1 C57.2,98.4 59.9,101.1 63.3,101.1 Z" id="Shape"></path>
                <path d="M97.2,101.1 L108,101.1 C111.3,101.1 114,98.4 114,95.1 C114,91.8 111.3,89.1 108,89.1 L97.2,89.1 C93.9,89.1 91.2,91.8 91.2,95.1 C91.2,98.4 93.9,101.1 97.2,101.1 Z" id="Shape"></path>
                <path d="M29.3,124.8 L40.1,124.8 C43.4,124.8 46.1,122.1 46.1,118.8 C46.1,115.5 43.4,112.8 40.1,112.8 L29.3,112.8 C26,112.8 23.3,115.5 23.3,118.8 C23.3,122.1 26,124.8 29.3,124.8 Z" id="Shape"></path>
                <path d="M63.3,124.8 L74.1,124.8 C77.4,124.8 80.1,122.1 80.1,118.8 C80.1,115.5 77.4,112.8 74.1,112.8 L63.3,112.8 C60,112.8 57.3,115.5 57.3,118.8 C57.2,122.1 59.9,124.8 63.3,124.8 Z" id="Shape"></path>
                <path d="M97.2,124.8 L108,124.8 C111.3,124.8 114,122.1 114,118.8 C114,115.5 111.3,112.8 108,112.8 L97.2,112.8 C93.9,112.8 91.2,115.5 91.2,118.8 C91.2,122.1 93.9,124.8 97.2,124.8 Z" id="Shape"></path>
                <path d="M29.3,148.4 L40.1,148.4 C43.4,148.4 46.1,145.7 46.1,142.4 C46.1,139.1 43.4,136.4 40.1,136.4 L29.3,136.4 C26,136.4 23.3,139.1 23.3,142.4 C23.3,145.7 26,148.4 29.3,148.4 Z" id="Shape"></path>
                <path d="M63.3,148.4 L74.1,148.4 C77.4,148.4 80.1,145.7 80.1,142.4 C80.1,139.1 77.4,136.4 74.1,136.4 L63.3,136.4 C60,136.4 57.3,139.1 57.3,142.4 C57.2,145.7 59.9,148.4 63.3,148.4 Z" id="Shape"></path>
                <path d="M97.2,148.4 L108,148.4 C111.3,148.4 114,145.7 114,142.4 C114,139.1 111.3,136.4 108,136.4 L97.2,136.4 C93.9,136.4 91.2,139.1 91.2,142.4 C91.2,145.7 93.9,148.4 97.2,148.4 Z" id="Shape"></path>
            </g>
        </g>
    </g>
</svg>