<?xml version="1.0" encoding="UTF-8"?>
<svg width="192px" height="174px" viewBox="0 0 192 174" version="1.1" xmlns="http://www.w3.org/2000/svg" xmlns:xlink="http://www.w3.org/1999/xlink">
    <!-- Generator: Sketch 43.2 (39069) - http://www.bohemiancoding.com/sketch -->
    <title>briefcase</title>
    <desc>Created with Sketch.</desc>
    <defs></defs>
    <g id="Page-1" stroke="none" stroke-width="1" fill="none" fill-rule="evenodd">
        <g id="briefcase" fill-rule="nonzero">
            <rect id="Rectangle-path" fill="#EFC419" x="9.9" y="42.5" width="168.8" height="121.1"></rect>
            <rect id="Rectangle-path" fill="#E87855" x="87.4" y="92.4" width="18.6" height="18.6"></rect>
            <path d="M170,96.8 L170,125.7 L170,141.5 C170,144.3 170.2,147.3 169.8,150.1 C169.9,149.5 170,148.8 170.1,148.2 C169.9,149.8 169.4,151.3 168.8,152.7 C169,152.1 169.3,151.5 169.5,151 C168.9,152.4 168.1,153.8 167.2,155 C167.6,154.5 168,154 168.3,153.5 C167.3,154.8 166.1,155.9 164.9,156.9 C165.4,156.5 165.9,156.1 166.4,155.8 C165.2,156.7 163.8,157.5 162.4,158.1 C163,157.9 163.6,157.6 164.1,157.4 C162.6,158 161.1,158.4 159.5,158.7 C160.1,158.6 160.8,158.5 161.4,158.4 C159.4,158.7 157.3,158.6 155.3,158.6 L144.6,158.6 L109.3,158.6 L68.6,158.6 L38.5,158.6 C35.5,158.6 32.4,158.8 29.5,158.4 C30.1,158.5 30.8,158.6 31.4,158.7 C29.8,158.5 28.3,158 26.9,157.4 C27.5,157.6 28.1,157.9 28.6,158.1 C27.2,157.5 25.9,156.7 24.6,155.8 C25.1,156.2 25.6,156.6 26.1,156.9 C24.8,155.9 23.7,154.8 22.7,153.5 C23.1,154 23.5,154.5 23.8,155 C22.9,153.8 22.1,152.4 21.5,151 C21.7,151.6 22,152.2 22.2,152.7 C21.6,151.2 21.2,149.7 21,148.2 C21.1,148.8 21.2,149.5 21.3,150.1 C20.8,146.7 21.1,143.1 21.1,139.7 L21.1,120.5 L21.1,96.8 C17,98.5 12.8,100.2 8.7,101.9 C13.2,106.3 19.7,108.6 25.9,108.6 L29,108.6 L44.7,108.6 L80.5,108.6 L83.4,108.6 L76.1,101.3 L76.1,108.8 L76.1,112.2 C76.1,117.1 79.2,120.9 83.6,122.6 C86,123.5 89.3,123.1 91.8,123.1 L101.6,123.1 C102.7,123.1 103.9,123.2 105,123.1 C106.9,122.9 108.6,122.6 110.2,121.5 C111.7,120.5 113.2,119.1 114,117.4 C114.9,115.6 115.3,113.8 115.3,111.8 L115.3,101.3 C112.9,103.7 110.4,106.2 108,108.6 L135.2,108.6 L165.1,108.6 C171.7,108.6 177.6,106.1 182.6,101.9 C185.6,99.4 185.2,94.2 182.6,91.6 C181.2,90.2 179.4,89.5 177.5,89.5 C175.4,89.5 173.9,90.3 172.4,91.6 C172.1,91.8 171.9,92 171.6,92.2 C172.1,91.8 172.6,91.4 173.1,91.1 C171.8,92.1 170.4,92.9 169,93.5 C169.6,93.3 170.2,93 170.7,92.8 C169.2,93.4 167.6,93.9 166,94.1 C166.6,94 167.3,93.9 167.9,93.8 C164.6,94.2 161.2,94 158,94 L139.6,94 L108.5,94 L108.1,94 C104.1,94 100.8,97.3 100.8,101.3 L100.8,107 C100.8,108.9 101,111 100.8,112.9 C100.9,112.3 101,111.6 101.1,111 C101,111.3 101,111.5 100.9,111.8 C101.1,111.2 101.4,110.6 101.6,110.1 C101.5,110.4 101.4,110.6 101.2,110.8 C101.6,110.3 102,109.8 102.3,109.3 C102.1,109.6 101.8,109.8 101.5,110.1 C102,109.7 102.5,109.3 103,109 C102.8,109.2 102.5,109.3 102.3,109.4 C102.9,109.2 103.5,108.9 104,108.7 C103.7,108.8 103.5,108.9 103.2,108.9 C103.8,108.8 104.5,108.7 105.1,108.6 C104.1,108.7 103,108.6 102,108.6 L95.8,108.6 L89.7,108.6 C88.6,108.6 87.5,108.7 86.5,108.6 C87.1,108.7 87.8,108.8 88.4,108.9 C88.1,108.8 87.9,108.8 87.6,108.7 C88.2,108.9 88.8,109.2 89.3,109.4 C89,109.3 88.8,109.2 88.6,109 C89.1,109.4 89.6,109.8 90.1,110.1 C89.8,109.9 89.6,109.6 89.3,109.3 C89.7,109.8 90.1,110.3 90.4,110.8 C90.2,110.6 90.1,110.3 90,110.1 C90.2,110.7 90.5,111.3 90.7,111.8 C90.6,111.5 90.5,111.3 90.5,111 C90.6,111.6 90.7,112.3 90.8,112.9 C90.6,111 90.8,109 90.8,107 L90.8,101.3 C90.8,97.3 87.5,94 83.5,94 L56.3,94 L26.2,94 C25.3,94 24.3,93.9 23.4,93.8 C24,93.9 24.7,94 25.3,94.1 C23.7,93.9 22.2,93.4 20.7,92.8 C21.3,93 21.9,93.3 22.4,93.5 C20.9,92.9 19.6,92 18.3,91.1 C18.8,91.5 19.3,91.9 19.8,92.2 C19.5,92 19.3,91.8 19.1,91.6 C14.6,87.2 6.7,90.4 6.7,96.7 L6.7,125.6 L6.7,143.1 L6.7,147.2 C6.7,151.6 7.8,155.8 9.8,159.8 C14.1,168.1 23.2,173.1 32.4,173.1 L38.5,173.1 L68.5,173.1 L109.1,173.1 L144.5,173.1 L155.3,173.1 C157.2,173.1 159.2,173.2 161.2,173 C164.7,172.6 167.8,171.7 170.9,170.1 C173.4,168.9 175.7,167 177.5,165 C181.8,160.4 184.2,154.4 184.4,148.1 C184.5,144.9 184.4,141.7 184.4,138.6 L184.4,101.5 L184.4,96.9 C184.4,92.9 181.1,89.6 177.1,89.6 C173.3,89.5 170,92.8 170,96.8 Z" id="Shape" fill="#5D6264"></path>
            <path d="M176.2,53.5 L176.2,82.7 C176.2,83.6 176.2,84.5 176.1,85.3 C176.2,84.7 176.3,84 176.4,83.4 C176.2,85 175.8,86.5 175.2,88 C175.4,87.4 175.7,86.8 175.9,86.3 C175.3,87.8 174.5,89.1 173.6,90.4 C174,89.9 174.4,89.4 174.7,88.9 C173.7,90.2 172.5,91.4 171.2,92.4 C171.7,92 172.2,91.6 172.7,91.3 C171.5,92.2 170.2,92.9 168.8,93.5 C169.4,93.3 170,93 170.5,92.8 C169,93.4 167.4,93.9 165.8,94.1 C166.4,94 167.1,93.9 167.7,93.8 C164.4,94.2 161,94 157.8,94 L139.4,94 L108.3,94 L107.9,94 C110.3,96.4 112.8,98.9 115.2,101.3 L115.2,94.1 L115.2,89.7 L115.2,88.7 C115.2,86.7 114.7,85.1 113.8,83.3 C112.6,80.8 110.1,79.2 107.7,78.3 C106.6,77.9 105.4,77.8 104.2,77.8 L101.5,77.8 L91.7,77.8 L86.9,77.8 C83.1,77.8 79.8,79.8 77.7,82.9 C76.5,84.7 76,87 76,89.2 L76,101.4 C78.4,99 80.9,96.5 83.3,94.1 L56.1,94.1 L26,94.1 C25.1,94.1 24.1,94 23.2,93.9 C23.8,94 24.5,94.1 25.1,94.2 C23.5,94 22,93.5 20.6,92.9 C21.2,93.1 21.8,93.4 22.3,93.6 C20.8,93 19.5,92.1 18.2,91.2 C18.7,91.6 19.2,92 19.7,92.3 C19.4,92.1 19.2,91.9 19,91.7 C14.5,87.3 6.6,90.5 6.6,96.8 L6.6,96.8 C10.7,95.1 14.9,93.4 19,91.7 C18.1,90.9 17.3,90.1 16.6,89.2 C17,89.7 17.4,90.2 17.7,90.7 C16.7,89.5 16,88.1 15.3,86.7 C15.5,87.3 15.8,87.9 16,88.4 C15.4,86.9 15,85.4 14.7,83.8 C14.8,84.4 14.9,85.1 15,85.7 C14.8,83.8 14.8,81.9 14.8,80.1 L14.8,71.3 L14.8,54.3 C14.8,53.2 14.8,52 15,50.9 C14.9,51.5 14.8,52.2 14.7,52.8 C14.9,51.2 15.3,49.7 15.9,48.3 C15.7,48.9 15.4,49.5 15.2,50 C15.8,48.6 16.6,47.3 17.5,46 C17.1,46.5 16.7,47 16.4,47.5 C17.4,46.2 18.5,45.1 19.8,44.1 C19.3,44.5 18.8,44.9 18.3,45.2 C19.5,44.3 20.9,43.5 22.3,42.9 C21.7,43.1 21.1,43.4 20.6,43.6 C22.1,43 23.6,42.6 25.1,42.3 C24.5,42.4 23.8,42.5 23.2,42.6 C25.1,42.3 27.1,42.4 29,42.4 L38.9,42.4 L72.5,42.4 L113.5,42.4 L148.7,42.4 L165,42.4 C165.9,42.4 166.8,42.5 167.7,42.6 C167.1,42.5 166.4,42.4 165.8,42.3 C167.4,42.5 168.9,43 170.4,43.6 C169.8,43.4 169.2,43.1 168.7,42.9 C170.1,43.5 171.5,44.3 172.7,45.2 C172.2,44.8 171.7,44.4 171.2,44.1 C172.5,45.1 173.6,46.2 174.6,47.5 C174.2,47 173.8,46.5 173.5,46 C174.4,47.2 175.2,48.6 175.8,50 C175.6,49.4 175.3,48.8 175.1,48.3 C175.7,49.8 176.1,51.3 176.4,52.8 C176.3,52.2 176.2,51.5 176.1,50.9 C176.1,51.8 176.2,52.7 176.2,53.5 C176.2,57.5 179.5,60.8 183.5,60.8 C187.4,60.8 190.8,57.5 190.8,53.5 C190.7,47.1 188.3,41.3 184.2,36.4 C180.6,32.2 175.1,29.2 169.7,28.4 C167.1,28 164.7,28 162,28 L137.1,28 L98.2,28 L58.5,28 L31,28 L26,28 C21.7,28 17.5,29.1 13.6,31.1 C11.2,32.4 8.9,34.2 7.1,36.2 C4.8,38.8 3.3,41.5 2,44.7 C-0.2,49.9 0.4,56.1 0.4,61.7 L0.4,80.4 C0.4,82 0.4,83.7 0.5,85.3 C0.9,88.9 1.8,92.1 3.5,95.3 C4.8,97.8 6.6,100.1 8.7,101.9 C10.7,103.6 13.2,104.5 15.8,103.8 C18.9,102.9 21.1,100 21.1,96.8 L21.1,96.8 C17,98.5 12.8,100.2 8.7,101.9 C13.1,106.3 19.8,108.6 25.9,108.6 L29,108.6 L44.7,108.6 L80.5,108.6 L83.4,108.6 C87.4,108.6 90.7,105.3 90.7,101.3 L90.7,94.8 C90.7,92.6 90.5,90.3 90.7,88.1 C90.6,88.7 90.5,89.4 90.4,90 C90.5,89.7 90.5,89.5 90.6,89.2 C90.4,89.8 90.1,90.4 89.9,90.9 C90,90.6 90.1,90.4 90.3,90.2 C89.9,90.7 89.5,91.2 89.2,91.7 C89.4,91.4 89.7,91.2 90,90.9 C89.5,91.3 89,91.7 88.5,92 C88.7,91.8 89,91.7 89.2,91.6 C88.6,91.8 88,92.1 87.5,92.3 C87.8,92.2 88,92.1 88.3,92.1 C87.7,92.2 87,92.3 86.4,92.4 C87.4,92.3 88.5,92.4 89.5,92.4 L95.7,92.4 L101.8,92.4 C102.9,92.4 104,92.3 105,92.4 C104.4,92.3 103.7,92.2 103.1,92.1 C103.4,92.2 103.6,92.2 103.9,92.3 C103.3,92.1 102.7,91.8 102.2,91.6 C102.5,91.7 102.7,91.8 102.9,92 C102.4,91.6 101.9,91.2 101.4,90.9 C101.7,91.1 101.9,91.4 102.2,91.7 C101.8,91.2 101.4,90.7 101.1,90.2 C101.3,90.4 101.4,90.7 101.5,90.9 C101.3,90.3 101,89.7 100.8,89.2 C100.9,89.5 101,89.7 101,90 C100.9,89.4 100.8,88.7 100.7,88.1 C101,90.3 100.7,92.6 100.7,94.8 L100.7,101.3 C100.7,105.3 104,108.6 108,108.6 L135.2,108.6 L165.1,108.6 C170.3,108.6 175.8,107 180.1,103.9 C183.1,101.7 185.5,99.1 187.5,95.9 C189.5,92.6 190.4,89.1 190.9,85.3 C191.1,83.5 191,81.7 191,79.9 L191,71.1 L191,53.5 C191,49.5 187.7,46.2 183.7,46.2 C179.7,46.2 176.2,49.6 176.2,53.5 Z" id="Shape" fill="#5D6264"></path>
            <path d="M119.4,18.8 L119.4,35.2 C121.8,32.8 124.3,30.3 126.7,27.9 L100.7,27.9 L66.5,27.9 L64.4,27.9 C66.8,30.3 69.3,32.8 71.7,35.2 L71.7,26.5 C71.7,23.5 71.4,20.4 71.8,17.4 C71.7,18 71.6,18.7 71.5,19.3 C71.6,18.4 71.9,17.5 72.2,16.6 C72,17.2 71.7,17.8 71.5,18.3 C71.9,17.5 72.3,16.7 72.9,15.9 C72.5,16.4 72.1,16.9 71.8,17.4 C72.4,16.7 73,16.1 73.7,15.5 C73.2,15.9 72.7,16.3 72.2,16.6 C72.9,16 73.7,15.6 74.6,15.2 C74,15.4 73.4,15.7 72.9,15.9 C73.8,15.5 74.7,15.3 75.6,15.2 C75,15.3 74.3,15.4 73.7,15.5 C75,15.3 76.4,15.4 77.7,15.4 L85.1,15.4 L105.1,15.4 L113.3,15.4 C114.8,15.4 116.3,15.3 117.7,15.5 C117.1,15.4 116.4,15.3 115.8,15.2 C116.7,15.3 117.6,15.6 118.5,15.9 C117.9,15.7 117.3,15.4 116.8,15.2 C117.6,15.6 118.4,16 119.2,16.6 C118.7,16.2 118.2,15.8 117.7,15.5 C118.4,16.1 119,16.7 119.6,17.4 C119.2,16.9 118.8,16.4 118.5,15.9 C119.1,16.6 119.5,17.4 119.9,18.3 C119.7,17.7 119.4,17.1 119.2,16.6 C119.6,17.5 119.8,18.4 119.9,19.3 C119.8,18.7 119.7,18 119.6,17.4 C119.4,17.9 119.4,18.3 119.4,18.8 C119.5,22.8 122.7,26.1 126.7,26.1 C130.6,26.1 134,22.8 134,18.8 C134,15.4 133,11.9 131.1,9.1 C130.2,7.8 129.2,6.5 127.9,5.4 C126,3.8 124.4,2.9 122.1,2 C119.7,1 117.1,0.9 114.5,0.9 L98.4,0.9 L79.6,0.9 L75.1,0.9 C70,0.9 64.8,3 61.5,6.9 C58.6,10.3 57,14.4 57,18.9 L57,24 L57,35.2 C57,39.2 60.3,42.5 64.3,42.5 L90.3,42.5 L124.5,42.5 L126.6,42.5 C130.6,42.5 133.9,39.2 133.9,35.2 L133.9,18.8 C133.9,14.8 130.6,11.5 126.6,11.5 C122.8,11.5 119.4,14.9 119.4,18.8 Z" id="Shape" fill="#5D6264"></path>
            <path d="M100.5,88.7 L100.5,100.7 L100.5,108.9 C100.5,110.3 100.6,111.7 100.5,113.1 C100.6,112.5 100.7,111.8 100.8,111.2 C100.7,111.5 100.7,111.7 100.6,112 C100.8,111.4 101.1,110.8 101.3,110.3 C101.2,110.6 101.1,110.8 100.9,111 C101.3,110.5 101.7,110 102,109.5 C101.8,109.8 101.5,110 101.2,110.3 C101.7,109.9 102.2,109.5 102.7,109.2 C102.5,109.4 102.2,109.5 102,109.6 C102.6,109.4 103.2,109.1 103.7,108.9 C103.4,109 103.2,109.1 102.9,109.1 C103.5,109 104.2,108.9 104.8,108.8 C103.8,108.9 102.7,108.8 101.7,108.8 L95.5,108.8 L89.4,108.8 C88.3,108.8 87.2,108.9 86.2,108.8 C86.8,108.9 87.5,109 88.1,109.1 C87.8,109 87.6,109 87.3,108.9 C87.9,109.1 88.5,109.4 89,109.6 C88.7,109.5 88.5,109.4 88.3,109.2 C88.8,109.6 89.3,110 89.8,110.3 C89.5,110.1 89.3,109.8 89,109.5 C89.4,110 89.8,110.5 90.1,111 C89.9,110.8 89.8,110.5 89.7,110.3 C89.9,110.9 90.2,111.5 90.4,112 C90.3,111.7 90.2,111.5 90.2,111.2 C90.3,111.8 90.4,112.5 90.5,113.1 C90.3,111.8 90.5,110.4 90.5,109.1 L90.5,100.8 L90.5,92.4 C90.5,91 90.4,89.6 90.5,88.2 C90.4,88.8 90.3,89.5 90.2,90.1 C90.3,89.8 90.3,89.6 90.4,89.3 C90.2,89.9 89.9,90.5 89.7,91 C89.8,90.7 89.9,90.5 90.1,90.3 C89.7,90.8 89.3,91.3 89,91.8 C89.2,91.5 89.5,91.3 89.8,91 C89.3,91.4 88.8,91.8 88.3,92.1 C88.5,91.9 88.8,91.8 89,91.7 C88.4,91.9 87.8,92.2 87.3,92.4 C87.6,92.3 87.8,92.2 88.1,92.2 C87.5,92.3 86.8,92.4 86.2,92.5 C87.2,92.4 88.3,92.5 89.3,92.5 L95.5,92.5 L101.6,92.5 C102.7,92.5 103.8,92.4 104.8,92.5 C104.2,92.4 103.5,92.3 102.9,92.2 C103.2,92.3 103.4,92.3 103.7,92.4 C103.1,92.2 102.5,91.9 102,91.7 C102.3,91.8 102.5,91.9 102.7,92.1 C102.2,91.7 101.7,91.3 101.2,91 C101.5,91.2 101.7,91.5 102,91.8 C101.6,91.3 101.2,90.8 100.9,90.3 C101.1,90.5 101.2,90.8 101.3,91 C101.1,90.4 100.8,89.8 100.6,89.3 C100.7,89.6 100.8,89.8 100.8,90.1 C100.7,89.5 100.6,88.8 100.5,88.2 L100.5,88.7 C100.7,92.7 103.7,96 107.8,96 C111.6,96 115.2,92.7 115.1,88.7 C115.1,87.6 115,86.4 114.6,85.4 C113.9,83.6 113.4,82.8 112.2,81.3 C110.4,79 107.4,78.3 104.7,77.9 C104.1,77.8 103.4,77.9 102.8,77.9 L93.5,77.9 L87,77.9 C82.2,77.9 77.5,81.4 76.5,86.2 C76.2,87.5 76.2,88.6 76.2,89.8 L76.2,107.7 C76.2,109.4 76.1,111 76.2,112.7 C76.4,118.6 81.2,123 87,123.2 L88.8,123.2 L104.5,123.2 C107.3,123.2 109.6,122.1 111.7,120.4 C114,118.6 114.9,115.8 115.2,113 C115.3,112.4 115.2,111.8 115.2,111.3 L115.2,103.2 L115.2,88.8 C115.2,84.8 111.9,81.5 107.9,81.5 C103.9,81.5 100.5,84.7 100.5,88.7 Z" id="Shape" fill="#5D6264"></path>
        </g>
    </g>
</svg>