<?xml version="1.0" encoding="UTF-8"?>
<svg width="155px" height="181px" viewBox="0 0 155 181" version="1.1" xmlns="http://www.w3.org/2000/svg" xmlns:xlink="http://www.w3.org/1999/xlink">
    <!-- Generator: Sketch 43.2 (39069) - http://www.bohemiancoding.com/sketch -->
    <title>business</title>
    <desc>Created with Sketch.</desc>
    <defs></defs>
    <g id="Page-1" stroke="none" stroke-width="1" fill="none" fill-rule="evenodd">
        <g id="business" fill-rule="nonzero">
            <path d="M96.47,102.93 L96.47,122.23 C96.4673441,125.64415 97.8224337,128.919228 100.236603,131.333397 C102.650772,133.747566 105.92585,135.102656 109.34,135.1 L122.2,135.1 C136.410287,135.1 147.93,146.619713 147.93,160.83 L147.93,173.71 L6.47,173.71 L6.47,160.84 C6.47,146.629713 17.9897134,135.11 32.2,135.11 L45.07,135.11 C48.4841497,135.112656 51.7592279,133.757566 54.1733971,131.343397 C56.5875663,128.929228 57.9426559,125.65415 57.94,122.24 L57.94,102.94 L96.47,102.94 L96.47,102.93 Z" id="Shape" fill="#EA7750"></path>
            <path d="M115.79,57.9 C115.79,86.32 98.51,109.36 77.19,109.36 C55.87,109.36 38.59,86.36 38.59,57.9 C38.59,29.44 55.87,6.44 77.19,6.44 C98.51,6.44 115.79,29.44 115.79,57.9" id="Shape" fill="#FFFFFF"></path>
            <path d="M77.2,115.79 C52.37,115.79 32.2,89.79 32.2,57.9 C32.2,26.01 52.4,0.01 77.2,0.01 C102,0.01 122.2,26.01 122.2,57.9 C122.2,89.79 102.03,115.79 77.2,115.79 Z M77.2,12.87 C59.47,12.87 45.04,33.07 45.04,57.87 C45.04,82.67 59.47,102.87 77.2,102.87 C94.93,102.87 109.36,82.67 109.36,57.87 C109.36,33.07 94.93,12.87 77.2,12.87 Z" id="Shape" fill="#5C6569"></path>
            <path d="M147.96,180.12 L6.47,180.12 C4.76465797,180.12 3.12916231,179.442556 1.9233034,178.236697 C0.717444484,177.030838 0.04,175.395342 0.04,173.69 L0.04,160.82 C0.0620389339,143.067659 14.4476593,128.682039 32.2,128.66 L45.07,128.66 C48.6189076,128.654494 51.4944935,125.778908 51.5,122.23 L51.5,102.93 C51.5,99.3788091 54.3788091,96.5 57.93,96.5 C61.4811909,96.5 64.36,99.3788091 64.36,102.93 L64.36,122.23 C64.3489762,132.884526 55.7145261,141.518976 45.06,141.53 L32.17,141.53 C21.5154739,141.541024 12.8810238,150.175474 12.87,160.83 L12.87,167.26 L141.52,167.26 L141.52,160.83 C141.508976,150.175474 132.874526,141.541024 122.22,141.53 L109.36,141.53 C98.7054739,141.518976 90.0710238,132.884526 90.06,122.23 L90.06,102.93 C90.06,99.3788091 92.9388091,96.5 96.49,96.5 C100.041191,96.5 102.92,99.3788091 102.92,102.93 L102.92,122.23 C102.925506,125.778908 105.801092,128.654494 109.35,128.66 L122.21,128.66 C139.962341,128.682039 154.347961,143.067659 154.37,160.82 L154.37,173.71 C154.35902,177.245587 151.495587,180.10902 147.96,180.12 L147.96,180.12 Z" id="Shape" fill="#5C6569"></path>
            <path d="M77.2,154.39 C58.86,154.39 45.04,146.09 45.04,135.09 C45.04,131.538809 47.9188091,128.66 51.47,128.66 C55.0211909,128.66 57.9,131.538809 57.9,135.09 C57.9,136.69 64.74,141.52 77.2,141.52 C89.66,141.52 96.5,136.69 96.5,135.09 C96.5,131.538809 99.3788091,128.66 102.93,128.66 C106.481191,128.66 109.36,131.538809 109.36,135.09 C109.36,146.09 95.53,154.39 77.2,154.39 Z" id="Shape" fill="#5C6569"></path>
        </g>
    </g>
</svg>