<?xml version="1.0" encoding="UTF-8"?>
<svg width="181px" height="186px" viewBox="0 0 181 186" version="1.1" xmlns="http://www.w3.org/2000/svg" xmlns:xlink="http://www.w3.org/1999/xlink">
    <!-- Generator: Sketch 43.2 (39069) - http://www.bohemiancoding.com/sketch -->
    <title>calendar</title>
    <desc>Created with Sketch.</desc>
    <defs></defs>
    <g id="Page-1" stroke="none" stroke-width="1" fill="none" fill-rule="evenodd">
        <g id="calendar" fill-rule="nonzero">
            <rect id="Rectangle-path" fill="#E87855" x="10.1" y="33.1" width="162" height="39.6"></rect>
            <rect id="Rectangle-path" fill="#F3F1E5" x="5.5" y="79.1" width="166.6" height="98.9"></rect>
            <circle id="Oval" fill="#EFC419" cx="45.9" cy="117.9" r="15.6"></circle>
            <path d="M157.1,25.3 L132.6,25.3 L132.6,7.2 C132.6,3.7 129.8,0.9 126.3,0.9 C122.8,0.9 120,3.7 120,7.2 L120,25.3 L61,25.3 L61,7.2 C61,3.7 58.2,0.9 54.7,0.9 C51.2,0.9 48.4,3.7 48.4,7.2 L48.4,25.3 L23.9,25.3 C10.8,25.3 0.1,36 0.1,49.1 L0.1,161.3 C0.1,174.4 10.8,185.1 23.9,185.1 L157.1,185.1 C170.2,185.1 180.9,174.4 180.9,161.3 L180.9,49.1 C180.9,36 170.2,25.3 157.1,25.3 Z M23.9,38 L48.4,38 L48.4,46.7 C48.4,50.2 51.2,53 54.7,53 C58.2,53 61,50.2 61,46.7 L61,38 L119.7,38 L119.7,46.7 C119.7,50.2 122.5,53 126,53 C129.5,53 132.3,50.2 132.3,46.7 L132.3,38 L156.8,38 C162.9,38 167.9,43 167.9,49.1 L167.9,70.3 L12.8,70.3 L12.8,49.1 C12.8,43 17.8,38 23.9,38 Z M157.1,172.5 L23.9,172.5 C17.8,172.5 12.8,167.5 12.8,161.4 L12.8,83.2 L168.3,83.2 L168.3,161.4 C168.2,167.5 163.2,172.5 157.1,172.5 Z" id="Shape" fill="#5D6264"></path>
            <path d="M48.8,92.4 C36.6,92.4 26.5,102.4 26.5,114.5 C26.5,126.6 36.5,136.6 48.8,136.6 C61.1,136.6 70.9,127 70.9,114.8 C70.9,102.6 61,92.4 48.8,92.4 Z M48.8,124 C43.6,124 39.4,119.6 39.4,114.4 C39.4,109.2 43.8,104.8 48.8,104.8 C53.8,104.8 58.2,109.2 58.2,114.4 C58.2,119.6 54,124 48.8,124 Z" id="Shape" fill="#5D6264"></path>
            <path d="M58.2,146.1 L39.2,146.1 C35.7,146.1 32.9,148.9 32.9,152.4 C32.9,155.9 35.7,158.7 39.2,158.7 L58.2,158.7 C61.7,158.7 64.5,155.9 64.5,152.4 C64.5,148.9 61.7,146.1 58.2,146.1 Z" id="Shape" fill="#5D6264"></path>
            <path d="M103.2,146.1 L84.2,146.1 C80.7,146.1 77.9,148.9 77.9,152.4 C77.9,155.9 80.7,158.7 84.2,158.7 L103.2,158.7 C106.7,158.7 109.5,155.9 109.5,152.4 C109.5,148.9 106.7,146.1 103.2,146.1 Z" id="Shape" fill="#5D6264"></path>
            <path d="M103.2,108.3 L84.2,108.3 C80.7,108.3 77.9,111.1 77.9,114.6 C77.9,118.1 80.7,120.9 84.2,120.9 L103.2,120.9 C106.7,120.9 109.5,118.1 109.5,114.6 C109.5,111.1 106.7,108.3 103.2,108.3 Z" id="Shape" fill="#5D6264"></path>
            <path d="M148.2,146.1 L129.2,146.1 C125.7,146.1 122.9,148.9 122.9,152.4 C122.9,155.9 125.7,158.7 129.2,158.7 L148.2,158.7 C151.7,158.7 154.5,155.9 154.5,152.4 C154.5,148.9 151.6,146.1 148.2,146.1 Z" id="Shape" fill="#5D6264"></path>
            <path d="M148.2,108.3 L129.2,108.3 C125.7,108.3 122.9,111.1 122.9,114.6 C122.9,118.1 125.7,120.9 129.2,120.9 L148.2,120.9 C151.7,120.9 154.5,118.1 154.5,114.6 C154.5,111.1 151.6,108.3 148.2,108.3 Z" id="Shape" fill="#5D6264"></path>
        </g>
    </g>
</svg>