<?xml version="1.0" encoding="UTF-8"?>
<svg width="159px" height="149px" viewBox="0 0 159 149" version="1.1" xmlns="http://www.w3.org/2000/svg" xmlns:xlink="http://www.w3.org/1999/xlink">
    <!-- Generator: Sketch 43.2 (39069) - http://www.bohemiancoding.com/sketch -->
    <title>calendar2</title>
    <desc>Created with Sketch.</desc>
    <defs></defs>
    <g id="Page-1" stroke="none" stroke-width="1" fill="none" fill-rule="evenodd">
        <g id="calendar2" fill-rule="nonzero">
            <path d="M141.68,142.35 L17.28,142.35 C11.0405005,142.333515 5.98648489,137.279499 5.97,131.04 L5.97,29.24 C5.99194296,23.0027712 11.0427712,17.951943 17.28,17.93 L141.68,17.93 C147.917229,17.951943 152.968057,23.0027712 152.99,29.24 L152.99,131.04 C152.973515,137.279499 147.919499,142.333515 141.68,142.35" id="Shape" fill="#FBFBFB"></path>
            <path d="M5.97,51.86 L5.97,29.24 C5.99194296,23.0027712 11.0427712,17.951943 17.28,17.93 L141.68,17.93 C147.917229,17.951943 152.968057,23.0027712 152.99,29.24 L152.99,51.86 L5.97,51.86 Z" id="Shape" fill="#E7C144"></path>
            <path d="M141.68,148.01 L17.28,148.01 C12.7713197,148.01 8.44730315,146.218934 5.25918472,143.030815 C2.07106629,139.842697 0.28,135.51868 0.28,131.01 L0.28,29.24 C0.28,19.8511593 7.89115925,12.24 17.28,12.24 L141.68,12.24 C151.068841,12.24 158.68,19.8511593 158.68,29.24 L158.68,131.04 C158.663452,140.417123 151.057137,148.010015 141.68,148.01 Z M17.28,23.58 C14.1540683,23.58 11.62,26.1140683 11.62,29.24 L11.62,131.04 C11.62,134.165932 14.1540683,136.7 17.28,136.7 L141.68,136.7 C144.805932,136.7 147.34,134.165932 147.34,131.04 L147.34,29.24 C147.34,26.1140683 144.805932,23.58 141.68,23.58 L17.28,23.58 Z" id="Shape" fill="#5C6569"></path>
            <path d="M153.02,57.51 L5.97,57.51 C3.89293744,57.5973633 1.93514899,56.5390413 0.870575284,54.753403 C-0.193998425,52.9677647 -0.193998425,50.7422353 0.870575284,48.956597 C1.93514899,47.1709587 3.89293744,46.1126367 5.97,46.2 L153.02,46.2 C155.097063,46.1126367 157.054851,47.1709587 158.119425,48.956597 C159.183998,50.7422353 159.183998,52.9677647 158.119425,54.753403 C157.054851,56.5390413 155.097063,57.5973633 153.02,57.51 L153.02,57.51 Z" id="Shape" fill="#5C6569"></path>
            <path d="M39.9,40.55 C36.7795912,40.55 34.25,38.0204088 34.25,34.9 L34.25,6.61 C34.1626367,4.53293744 35.2209587,2.57514899 37.006597,1.51057528 C38.7922353,0.446001575 41.0177647,0.446001575 42.803403,1.51057528 C44.5890413,2.57514899 45.6473633,4.53293744 45.56,6.61 L45.56,34.89 C45.5626607,36.3919394 44.9671954,37.833129 43.9051622,38.8951622 C42.843129,39.9571954 41.4019394,40.5526607 39.9,40.55 Z" id="Shape" fill="#5C6569"></path>
            <path d="M119.09,40.55 C117.589795,40.5526552 116.150125,39.9585615 115.088381,38.898693 C114.026636,37.8388245 113.429998,36.4002074 113.43,34.9 L113.43,6.61 C113.342637,4.53293744 114.400959,2.57514899 116.186597,1.51057528 C117.972235,0.446001575 120.197765,0.446001575 121.983403,1.51057528 C123.769041,2.57514899 124.827363,4.53293744 124.74,6.61 L124.74,34.89 C124.740005,38.0120306 122.212026,40.544484 119.09,40.55 L119.09,40.55 Z" id="Shape" fill="#5C6569"></path>
            <rect id="Rectangle-path" fill="#5C6569" x="51.21" y="68.83" width="11.31" height="11.31"></rect>
            <rect id="Rectangle-path" fill="#5C6569" x="73.84" y="68.83" width="11.31" height="11.31"></rect>
            <rect id="Rectangle-path" fill="#5C6569" x="96.46" y="68.83" width="11.31" height="11.31"></rect>
            <rect id="Rectangle-path" fill="#5C6569" x="119.08" y="68.83" width="11.31" height="11.31"></rect>
            <rect id="Rectangle-path" fill="#5C6569" x="28.59" y="91.45" width="11.31" height="11.31"></rect>
            <rect id="Rectangle-path" fill="#5C6569" x="51.21" y="91.45" width="11.31" height="11.31"></rect>
            <rect id="Rectangle-path" fill="#5C6569" x="73.84" y="91.45" width="11.31" height="11.31"></rect>
            <rect id="Rectangle-path" fill="#5C6569" x="96.46" y="91.45" width="11.31" height="11.31"></rect>
            <rect id="Rectangle-path" fill="#5C6569" x="119.08" y="91.45" width="11.31" height="11.31"></rect>
            <rect id="Rectangle-path" fill="#5C6569" x="28.59" y="114.07" width="11.31" height="11.31"></rect>
            <rect id="Rectangle-path" fill="#5C6569" x="51.21" y="114.07" width="11.31" height="11.31"></rect>
            <rect id="Rectangle-path" fill="#5C6569" x="73.84" y="114.07" width="11.31" height="11.31"></rect>
            <rect id="Rectangle-path" fill="#5C6569" x="96.46" y="114.07" width="11.31" height="11.31"></rect>
        </g>
    </g>
</svg>