<?xml version="1.0" encoding="utf-8"?>
<!-- Generator: Adobe Illustrator 21.0.1, SVG Export Plug-In . SVG Version: 6.00 Build 0)  -->
<svg version="1.1" id="Layer_1" xmlns="http://www.w3.org/2000/svg" xmlns:xlink="http://www.w3.org/1999/xlink" x="0px" y="0px"
	 viewBox="0 0 231 234" style="enable-background:new 0 0 231 234;" xml:space="preserve">
<style type="text/css">
	.st0{fill:#5D6264;}
	.st1{fill:#E87855;}
	.st2{fill:#E1AC4F;}
	.st3{fill:#F3F1E5;}
	.st4{fill:#EFC419;}
	.st5{fill:#9CD8D5;}
	.st6{fill:#7E8588;}
	.st7{fill:#FFFFFF;}
	.st8{fill:#EFC41A;}
	.st9{fill-rule:evenodd;clip-rule:evenodd;fill:#FFFFFF;}
	.st10{fill-rule:evenodd;clip-rule:evenodd;fill:#5D6264;}
	.st11{opacity:0.48;}
	.st12{fill-rule:evenodd;clip-rule:evenodd;fill:#7E8588;}
	.st13{fill:#E6C045;}
	.st14{fill:#5D666A;}
	.st15{fill:none;stroke:#CFCFCE;stroke-width:0.5;stroke-miterlimit:10;}
	.st16{fill:#9AD7D4;}
	.st17{fill:#E87855;stroke:#5D666A;stroke-width:12;stroke-miterlimit:10;}
	.st18{fill:#9CD8D5;stroke:#5D666A;stroke-width:12;stroke-miterlimit:10;}
	.st19{fill:#EFC419;stroke:#5D666A;stroke-width:12;stroke-miterlimit:10;}
	.st20{fill:#9CD8D5;stroke:#5D6264;stroke-width:5;stroke-miterlimit:10;}
</style>
<g>
	<rect x="35.1" y="57.1" class="st1" width="162" height="39.6"/>
	<rect x="30.5" y="103.1" class="st3" width="166.6" height="98.9"/>
	<circle class="st4" cx="70.9" cy="141.9" r="15.6"/>
	<path class="st0" d="M182.1,49.3h-24.5V31.2c0-3.5-2.8-6.3-6.3-6.3s-6.3,2.8-6.3,6.3v18.1H86V31.2c0-3.5-2.8-6.3-6.3-6.3
		s-6.3,2.8-6.3,6.3v18.1H48.9c-13.1,0-23.8,10.7-23.8,23.8v112.2c0,13.1,10.7,23.8,23.8,23.8h133.2c13.1,0,23.8-10.7,23.8-23.8V73.1
		C205.9,60,195.2,49.3,182.1,49.3z M48.9,62h24.5v8.7c0,3.5,2.8,6.3,6.3,6.3s6.3-2.8,6.3-6.3V62h58.7v8.7c0,3.5,2.8,6.3,6.3,6.3
		c3.5,0,6.3-2.8,6.3-6.3V62h24.5c6.1,0,11.1,5,11.1,11.1v21.2H37.8V73.1C37.8,67,42.8,62,48.9,62z M182.1,196.5H48.9
		c-6.1,0-11.1-5-11.1-11.1v-78.2h155.5v78.2C193.2,191.5,188.2,196.5,182.1,196.5z"/>
	<path class="st0" d="M73.8,116.4c-12.2,0-22.3,10-22.3,22.1s10,22.1,22.3,22.1s22.1-9.6,22.1-21.8S86,116.4,73.8,116.4z M73.8,148
		c-5.2,0-9.4-4.4-9.4-9.6c0-5.2,4.4-9.6,9.4-9.6c5,0,9.4,4.4,9.4,9.6C83.2,143.6,79,148,73.8,148z"/>
	<path class="st0" d="M83.2,170.1h-19c-3.5,0-6.3,2.8-6.3,6.3c0,3.5,2.8,6.3,6.3,6.3h19c3.5,0,6.3-2.8,6.3-6.3
		C89.5,172.9,86.7,170.1,83.2,170.1z"/>
	<path class="st0" d="M128.2,170.1h-19c-3.5,0-6.3,2.8-6.3,6.3c0,3.5,2.8,6.3,6.3,6.3h19c3.5,0,6.3-2.8,6.3-6.3
		C134.5,172.9,131.7,170.1,128.2,170.1z"/>
	<path class="st0" d="M128.2,132.3h-19c-3.5,0-6.3,2.8-6.3,6.3c0,3.5,2.8,6.3,6.3,6.3h19c3.5,0,6.3-2.8,6.3-6.3
		C134.5,135.1,131.7,132.3,128.2,132.3z"/>
	<path class="st0" d="M173.2,170.1h-19c-3.5,0-6.3,2.8-6.3,6.3c0,3.5,2.8,6.3,6.3,6.3h19c3.5,0,6.3-2.8,6.3-6.3
		C179.5,172.9,176.6,170.1,173.2,170.1z"/>
	<path class="st0" d="M173.2,132.3h-19c-3.5,0-6.3,2.8-6.3,6.3c0,3.5,2.8,6.3,6.3,6.3h19c3.5,0,6.3-2.8,6.3-6.3
		C179.5,135.1,176.6,132.3,173.2,132.3z"/>
</g>
</svg>
