<?xml version="1.0" encoding="UTF-8"?>
<svg width="128px" height="148px" viewBox="0 0 128 148" version="1.1" xmlns="http://www.w3.org/2000/svg" xmlns:xlink="http://www.w3.org/1999/xlink">
    <!-- Generator: Sketch 43.2 (39069) - http://www.bohemiancoding.com/sketch -->
    <title>find</title>
    <desc>Created with Sketch.</desc>
    <defs></defs>
    <g id="Page-1" stroke="none" stroke-width="1" fill="none" fill-rule="evenodd">
        <g id="find" fill-rule="nonzero">
            <polygon id="Shape" fill="#E7C144" points="21.14 100.39 0 142.66 116.25 142.66 95.11 100.39"></polygon>
            <path d="M64.13,5.29 C51.5102898,5.28734155 39.4071253,10.3013783 30.4864564,19.2276742 C21.5657875,28.1539701 16.5593838,40.260294 16.57,52.88 C16.57,84.42 64.13,121.57 64.13,121.57 C64.13,121.57 111.68,84.38 111.68,52.88 C111.682653,40.2672234 106.674106,28.1701256 97.7564635,19.2506079 C88.8388212,10.3310902 76.7427769,5.31999972 64.13,5.32 M64.13,68.73 C55.3762867,68.73 48.28,61.6337133 48.28,52.88 C48.28,44.1262867 55.3762867,37.03 64.13,37.03 C72.8837133,37.03 79.98,44.1262867 79.98,52.88 C79.98,57.0836814 78.3100941,61.1151909 75.3376425,64.0876425 C72.3651909,67.0600941 68.3336814,68.73 64.13,68.73" id="Shape" fill="#E2AC45"></path>
            <path d="M64.13,126.82 C62.9521918,126.81888 61.8084423,126.424726 60.88,125.7 C58.88,124.12 11.29,86.57 11.29,52.85 C11.29,23.6672738 34.9472738,0.01 64.13,0.01 C93.3127262,0.01 116.97,23.6672738 116.97,52.85 C116.97,86.58 69.41,124.12 67.39,125.7 C66.4588566,126.426835 65.3112348,126.82111 64.13,126.82 L64.13,126.82 Z M64.13,10.57 C40.7807417,10.5975859 21.865501,29.5307261 21.86,52.88 C21.86,76.88 53.71,105.88 64.13,114.73 C74.55,105.88 106.4,76.88 106.4,52.88 C106.394499,29.5307261 87.4792583,10.5975859 64.13,10.57 L64.13,10.57 Z" id="Shape" fill="#5C6569"></path>
            <path d="M64.13,73.98 C55.5751225,73.9840315 47.8611225,68.8316632 44.5882573,60.9275947 C41.3153922,53.0235261 43.128915,43.9260633 49.1824234,37.8811496 C55.2359318,31.8362359 64.3359621,30.0356404 72.2353726,33.3197323 C80.1347831,36.6038242 85.2761861,44.3251368 85.26,52.88 C85.2269741,64.5312082 75.7812433,73.963528 64.13,73.98 L64.13,73.98 Z M64.13,42.28 C58.2962606,42.2800235 53.5655508,47.0062916 53.5600473,52.8400284 C53.5545438,58.6737652 58.2763278,63.4089506 64.1100567,63.4199811 C69.9437857,63.4310116 74.6834426,58.7137159 74.7,52.88 C74.7079676,50.0705473 73.5981834,47.373287 71.6153477,45.3829477 C69.632512,43.3926083 66.9394628,42.2726442 64.13,42.27 L64.13,42.28 Z" id="Shape" fill="#5C6569"></path>
            <path d="M122.25,147.95 L6.01,147.95 C4.17623872,147.954097 2.47167088,147.006448 1.50730217,145.44674 C0.542933459,143.887032 0.45688461,141.938651 1.28,140.3 L22.42,98.03 C23.3170218,96.2399693 25.1477868,95.1097719 27.15,95.11 L43,95.11 L43,105.68 L30.41,105.68 L14.56,137.38 L113.7,137.38 L97.85,105.68 L85.26,105.68 L85.26,95.11 L101.11,95.11 C103.112213,95.1097719 104.942978,96.2399693 105.84,98.03 L126.97,140.3 C127.79231,141.93706 127.707273,143.883374 126.745317,145.442476 C125.783361,147.001579 124.081982,147.950621 122.25,147.95 Z" id="Shape" fill="#5C6569"></path>
        </g>
    </g>
</svg>