<?xml version="1.0" encoding="UTF-8"?>
<svg width="127px" height="148px" viewBox="0 0 127 148" version="1.1" xmlns="http://www.w3.org/2000/svg" xmlns:xlink="http://www.w3.org/1999/xlink">
    <!-- Generator: Sketch 43.2 (39069) - http://www.bohemiancoding.com/sketch -->
    <title>hire</title>
    <desc>Created with Sketch.</desc>
    <defs></defs>
    <g id="Page-1" stroke="none" stroke-width="1" fill="none" fill-rule="evenodd">
        <g id="hire" fill-rule="nonzero">
            <path d="M79.26,84.52 L79.26,100.37 C79.2573433,103.174152 80.3701119,105.864217 82.3529477,107.847052 C84.3357834,109.829888 87.0258481,110.942657 89.83,110.94 L100.41,110.94 C112.0853,110.94 121.55,120.4047 121.55,132.08 L121.55,142.65 L5.29,142.65 L5.29,132.1 C5.28999478,120.432506 14.7425116,110.971038 26.41,110.96 L36.98,110.96 C39.7841519,110.962657 42.4742166,109.849888 44.4570523,107.867052 C46.4398881,105.884217 47.5526567,103.194152 47.55,100.39 L47.55,84.52 L79.25,84.52 L79.26,84.52 Z" id="Shape" fill="#8EEBDF"></path>
            <path d="M95.11,47.52 C95.11,70.86 80.92,89.79 63.41,89.79 C45.9,89.79 31.71,70.9 31.71,47.52 C31.71,24.14 45.9,5.25 63.41,5.25 C80.92,5.25 95.11,24.18 95.11,47.52" id="Shape" fill="#F2F1E4"></path>
            <path d="M63.41,95.11 C43.01,95.11 26.41,73.78 26.41,47.56 C26.41,21.34 43,0.01 63.41,0.01 C83.82,0.01 100.41,21.34 100.41,47.56 C100.41,73.78 83.81,95.11 63.41,95.11 Z M63.41,10.52 C48.84,10.52 36.99,27.11 36.99,47.52 C36.99,67.93 48.84,84.52 63.41,84.52 C77.98,84.52 89.83,67.93 89.83,47.52 C89.83,27.11 77.98,10.52 63.41,10.52 Z" id="Shape" fill="#5C6569"></path>
            <path d="M121.53,147.95 L5.29,147.95 C2.37393652,147.95 0.01,145.586063 0.01,142.67 L0.01,132.1 C0.0265071199,117.523285 11.8333015,105.707546 26.41,105.68 L36.98,105.68 C39.8976855,105.680005 42.2644845,103.31768 42.27,100.4 L42.27,84.52 C42.27,81.6011751 44.6361751,79.235 47.555,79.235 C50.4738249,79.235 52.84,81.6011751 52.84,84.52 L52.84,100.37 C52.8289809,109.119145 45.739145,116.208981 36.99,116.22 L26.41,116.22 C17.660855,116.231019 10.5710191,123.320855 10.56,132.07 L10.56,137.35 L116.25,137.35 L116.25,132.07 C116.2225,123.336468 109.143559,116.266466 100.41,116.25 L89.83,116.25 C81.080855,116.238981 73.9910191,109.149145 73.98,100.4 L73.98,84.52 C73.98,81.6011751 76.3461751,79.235 79.265,79.235 C82.1838249,79.235 84.55,81.6011751 84.55,84.52 L84.55,100.37 C84.5555029,103.283781 86.9162189,105.644497 89.83,105.65 L100.41,105.65 C114.99451,105.666533 126.813467,117.48549 126.83,132.07 L126.83,142.64 C126.838016,144.049007 126.282521,145.402768 125.287126,146.400041 C124.291732,147.397314 122.939019,147.95536 121.53,147.95 L121.53,147.95 Z" id="Shape" fill="#5C6569"></path>
            <path d="M63.41,126.82 C48.35,126.82 36.99,120.01 36.99,110.97 C36.99,108.051175 39.3561751,105.685 42.275,105.685 C45.1938249,105.685 47.56,108.051175 47.56,110.97 C47.56,112.29 53.18,116.26 63.41,116.26 C73.64,116.26 79.26,112.26 79.26,110.97 C79.26,108.051175 81.6261751,105.685 84.545,105.685 C87.4638249,105.685 89.83,108.051175 89.83,110.97 C89.83,120 78.47,126.82 63.41,126.82 Z" id="Shape" fill="#5C6569"></path>
        </g>
    </g>
</svg>