<?xml version="1.0" encoding="UTF-8"?>
<svg width="175px" height="150px" viewBox="0 0 175 150" version="1.1" xmlns="http://www.w3.org/2000/svg" xmlns:xlink="http://www.w3.org/1999/xlink">
    <!-- Generator: Sketch 43.2 (39069) - http://www.bohemiancoding.com/sketch -->
    <title>job</title>
    <desc>Created with Sketch.</desc>
    <defs></defs>
    <g id="Page-1" stroke="none" stroke-width="1" fill="none" fill-rule="evenodd">
        <g id="job" fill-rule="nonzero">
            <path d="M156.3,142.88 L19.63,142.88 C12.7797385,142.858044 7.23195614,137.310261 7.21,130.46 L7.21,18.64 C7.23195614,11.7897385 12.7797385,6.24195614 19.63,6.22 L156.3,6.22 C163.150261,6.24195614 168.698044,11.7897385 168.72,18.64 L168.72,130.46 C168.698044,137.310261 163.150261,142.858044 156.3,142.88" id="Shape" fill="#F2F1E4"></path>
            <path d="M7.21,37.28 L7.21,18.64 C7.23195614,11.7897385 12.7797385,6.24195614 19.63,6.22 L156.3,6.22 C163.150261,6.24195614 168.698044,11.7897385 168.72,18.64 L168.72,37.28 L7.21,37.28 L7.21,37.28 Z" id="Shape" fill="#8EEBDF"></path>
            <path d="M156.3,149.09 L19.63,149.09 C9.33216721,149.095532 0.976554518,140.757821 0.96,130.46 L0.96,18.64 C0.971023061,8.34998162 9.30998162,0.0110230608 19.6,0 L156.3,0 C166.597828,-5.91496882e-06 174.948963,8.34217792 174.96,18.64 L174.96,130.46 C174.94345,140.753916 166.593929,149.090013 156.3,149.09 L156.3,149.09 Z M19.63,12.43 C16.2025949,12.4355059 13.4255059,15.2125949 13.42,18.64 L13.42,130.46 C13.4255059,133.887405 16.2025949,136.664494 19.63,136.67 L156.3,136.67 C159.727405,136.664494 162.504494,133.887405 162.51,130.46 L162.51,18.64 C162.504494,15.2125949 159.727405,12.4355059 156.3,12.43 L19.63,12.43 Z" id="Shape" fill="#5C6569"></path>
            <path d="M38.27,24.81 C38.27,28.2396883 35.4896883,31.02 32.06,31.02 C28.6303117,31.02 25.85,28.2396883 25.85,24.81 C25.85,21.3803117 28.6303117,18.6 32.06,18.6 C35.4896883,18.6 38.27,21.3803117 38.27,24.81" id="Shape" fill="#5C6569"></path>
            <path d="M56.91,24.81 C56.91,28.2396883 54.1296883,31.02 50.7,31.02 C47.2703117,31.02 44.49,28.2396883 44.49,24.81 C44.49,21.3803117 47.2703117,18.6 50.7,18.6 C54.1296883,18.6 56.91,21.3803117 56.91,24.81" id="Shape" fill="#5C6569"></path>
            <path d="M75.54,24.81 C75.54,28.2396883 72.7596883,31.02 69.33,31.02 C65.9003117,31.02 63.12,28.2396883 63.12,24.81 C63.12,21.3803117 65.9003117,18.6 69.33,18.6 C72.7574051,18.6055059 75.5344941,21.3825949 75.54,24.81" id="Shape" fill="#5C6569"></path>
            <rect id="Rectangle-path" fill="#5C6569" x="7.21" y="37.27" width="161.51" height="12.42"></rect>
            <path d="M143.87,31.07 L94.17,31.07 C90.7403117,31.07 87.96,28.2896883 87.96,24.86 C87.96,21.4303117 90.7403117,18.65 94.17,18.65 L143.87,18.65 C147.299688,18.65 150.08,21.4303117 150.08,24.86 C150.08,28.2896883 147.299688,31.07 143.87,31.07" id="Shape" fill="#5C6569"></path>
            <rect id="Rectangle-path" fill="#5C6569" x="25.85" y="62.12" width="124.24" height="12.43"></rect>
            <rect id="Rectangle-path" fill="#5C6569" x="25.85" y="80.76" width="24.85" height="43.48"></rect>
            <rect id="Rectangle-path" fill="#5C6569" x="56.91" y="80.76" width="24.85" height="43.48"></rect>
            <rect id="Rectangle-path" fill="#5C6569" x="87.97" y="80.76" width="62.12" height="43.48"></rect>
        </g>
    </g>
</svg>