<svg id="Layer_2" data-name="Layer 2" xmlns="http://www.w3.org/2000/svg" viewBox="0 0 94.23 26.58"><defs><style>.cls-1{fill:#fff;}</style></defs><title>logo-text</title><path class="cls-1" d="M1642.6,59.06c0-1.83,1.09-3,2.69-3a2.67,2.67,0,0,1,2.81,2.53,3.29,3.29,0,0,1-.35,1.56,7.15,7.15,0,0,0,4.05,1.09c2.81,0,4.6-1.25,4.6-3.47s-2.14-3.12-4.72-4c-4.75-1.71-8.11-3.23-8.11-8,0-4.09,3.31-7.29,8.5-7.29,4.79,0,8.5,2.46,8.5,5.53a2.6,2.6,0,0,1-2.61,2.88,2.66,2.66,0,0,1-2.81-2.61,2.31,2.31,0,0,1,.27-1.21,6.46,6.46,0,0,0-3.39-.78c-2.53,0-4,1.29-4,3.16,0,2.1,2.14,3,4.72,4,4.6,1.64,8.07,3.23,8.07,8s-3.78,7.64-9,7.64C1646.69,65,1642.6,62.18,1642.6,59.06Z" transform="translate(-1642.6 -38.44)"/><path class="cls-1" d="M1664.46,51.81a13.08,13.08,0,0,1,13.48-13.37c6,0,9.94,3.12,9.94,6.2a2.89,2.89,0,0,1-2.81,3.16,2.71,2.71,0,0,1-3-2.77,3.18,3.18,0,0,1,.27-1.32,7.49,7.49,0,0,0-4.56-1.17c-5,0-8.81,3.7-8.81,9.24s4.09,9.28,8.42,9.28a10.81,10.81,0,0,0,6.2-1.64V55h-6.39V51.27H1688V64.55h-4.21V62.65a11.06,11.06,0,0,1-7,2.38C1670.46,65,1664.46,60,1664.46,51.81Z" transform="translate(-1642.6 -38.44)"/><path class="cls-1" d="M1692.4,60.62h2.92V42.85h-2.92V38.91h18.9v7.33h-4.21V42.81h-7.37v7.33h7.56v3.78h-7.56v6.7h3.39v3.94H1692.4V60.62Z" transform="translate(-1642.6 -38.44)"/><path class="cls-1" d="M1713,51.73a13.13,13.13,0,0,1,13.48-13.29c6,0,9.94,3.12,9.94,6.2a2.89,2.89,0,0,1-2.81,3.16,2.71,2.71,0,0,1-3-2.77,3.18,3.18,0,0,1,.27-1.32,7.49,7.49,0,0,0-4.56-1.17c-5,0-8.81,3.82-8.81,9.16,0,5.14,3.58,9.24,9,9.24a9.83,9.83,0,0,0,7.37-3.39l2.92,3A13.78,13.78,0,0,1,1726.54,65C1718.63,65,1713,59.72,1713,51.73Z" transform="translate(-1642.6 -38.44)"/></svg>