<?xml version="1.0" encoding="utf-8"?>
<!-- Generator: Adobe Illustrator 21.0.1, SVG Export Plug-In . SVG Version: 6.00 Build 0)  -->
<svg version="1.1" id="Layer_1" xmlns="http://www.w3.org/2000/svg" xmlns:xlink="http://www.w3.org/1999/xlink" x="0px" y="0px"
	 viewBox="0 0 231 234" style="enable-background:new 0 0 231 234;" xml:space="preserve">
<style type="text/css">
	.st0{fill:#5D6264;}
	.st1{fill:#E87855;}
	.st2{fill:#E1AC4F;}
	.st3{fill:#F3F1E5;}
	.st4{fill:#EFC419;}
	.st5{fill:#9CD8D5;}
	.st6{fill:#7E8588;}
	.st7{fill:#FFFFFF;}
	.st8{fill:#EFC41A;}
	.st9{fill-rule:evenodd;clip-rule:evenodd;fill:#FFFFFF;}
	.st10{fill-rule:evenodd;clip-rule:evenodd;fill:#5D6264;}
	.st11{opacity:0.48;}
	.st12{fill-rule:evenodd;clip-rule:evenodd;fill:#7E8588;}
	.st13{fill:#E6C045;}
	.st14{fill:#5D666A;}
	.st15{fill:none;stroke:#CFCFCE;stroke-width:0.5;stroke-miterlimit:10;}
	.st16{fill:#9AD7D4;}
	.st17{fill:#E87855;stroke:#5D666A;stroke-width:12;stroke-miterlimit:10;}
	.st18{fill:#9CD8D5;stroke:#5D666A;stroke-width:12;stroke-miterlimit:10;}
	.st19{fill:#EFC419;stroke:#5D666A;stroke-width:12;stroke-miterlimit:10;}
	.st20{fill:#9CD8D5;stroke:#5D6264;stroke-width:5;stroke-miterlimit:10;}
</style>
<g>
	<g id="XMLID_1_">
		<g>
			<path class="st0" d="M218.1,95.4c3,0,5.5,2.5,5.5,5.5c0,3-2.5,5.5-5.5,5.5h-30.4c-3,0-5.5-2.5-5.5-5.5c0-3.1,2.5-5.5,5.5-5.5
				H218.1z"/>
			<path class="st0" d="M214.4,136c2.7,1.3,3.9,4.6,2.6,7.3c-1.3,2.8-4.6,3.9-7.4,2.6c0,0,0,0,0,0l-27.4-13.2
				c-2.7-1.4-3.7-4.8-2.3-7.5c1.4-2.5,4.4-3.6,7.1-2.5L214.4,136z"/>
			<path class="st0" d="M216.8,58.7c1.1,2.6,0.1,5.7-2.5,7.1L186.9,79c-0.7,0.4-1.6,0.6-2.4,0.6c-3.1,0-5.5-2.5-5.5-5.5
				c0-2.1,1.2-4,3.1-5l27.4-13.2C212.3,54.6,215.6,55.9,216.8,58.7z"/>
			<path class="st0" d="M156.3,27.7c18.8,47,18.8,99.3,0,146.3c-0.1,0.3-0.3,0.7-0.5,1c-1.7,2.6-5.1,3.3-7.6,1.6l-55.3-35.7H82.6
				l-1.7,47c0,1.2-0.2,2.3-0.4,3.5c-2.4,12.4-14.4,20.4-26.8,18c-12.4-2.4-20.4-14.4-18-26.8l8.3-41.7H30.8
				c-12.9,0-23.4-10.5-23.5-23.4V84.3c0-12.9,10.5-23.4,23.5-23.4h62l55.3-35.8c0.3-0.2,0.6-0.4,0.9-0.5
				C151.9,23.5,155.1,24.9,156.3,27.7z M148.4,163.7c14.6-40.6,14.6-85,0-125.6l-48.3,31.3v62.9L148.4,163.7z M89,129.9V71.9H68.4
				v57.9H89z M69.9,187.4l1.7-46.6H55.2l-8.7,43.8c-0.1,0.6-0.2,1.1-0.2,1.7c-0.3,6.5,4.8,12,11.3,12.3
				C64.1,199,69.6,193.9,69.9,187.4z M57.3,129.9V71.9H30.8c-6.9,0-12.4,5.6-12.4,12.4v33.1c0,6.9,5.6,12.4,12.4,12.4H57.3z"/>
			<path class="st4" d="M148.4,38.1c14.6,40.6,14.6,85,0,125.6l-48.3-31.3V69.4L148.4,38.1z"/>
			<rect x="68.4" y="71.9" class="st4" width="20.6" height="57.9"/>
			<path class="st4" d="M71.6,140.9l-1.7,46.6c-0.3,6.5-5.8,11.6-12.3,11.3c-6.5-0.3-11.5-5.8-11.3-12.3c0-0.6,0.1-1.2,0.2-1.7
				l8.7-43.8H71.6z"/>
			<path class="st1" d="M57.3,71.9v57.9H30.8c-6.9,0-12.4-5.6-12.4-12.4V84.3c0-6.8,5.6-12.4,12.4-12.4H57.3z"/>
		</g>
	</g>
</g>
</svg>
