<?xml version="1.0" encoding="UTF-8"?>
<svg width="217px" height="186px" viewBox="0 0 217 186" version="1.1" xmlns="http://www.w3.org/2000/svg" xmlns:xlink="http://www.w3.org/1999/xlink">
    <!-- Generator: Sketch 43.2 (39069) - http://www.bohemiancoding.com/sketch -->
    <title>megaphone</title>
    <desc>Created with Sketch.</desc>
    <defs></defs>
    <g id="Page-1" stroke="none" stroke-width="1" fill="none" fill-rule="evenodd">
        <g id="megaphone" fill-rule="nonzero">
            <path d="M211.1,71.4 C214.1,71.4 216.6,73.9 216.6,76.9 C216.6,79.9 214.1,82.4 211.1,82.4 L180.7,82.4 C177.7,82.4 175.2,79.9 175.2,76.9 C175.2,73.8 177.7,71.4 180.7,71.4 L211.1,71.4 Z" id="Shape" fill="#5D6264"></path>
            <path d="M207.4,112 C210.1,113.3 211.3,116.6 210,119.3 C208.7,122.1 205.4,123.2 202.6,121.9 L202.6,121.9 L175.2,108.7 C172.5,107.3 171.5,103.9 172.9,101.2 C174.3,98.7 177.3,97.6 180,98.7 L207.4,112 Z" id="Shape" fill="#5D6264"></path>
            <path d="M209.8,34.7 C210.9,37.3 209.9,40.4 207.3,41.8 L179.9,55 C179.2,55.4 178.3,55.6 177.5,55.6 C174.4,55.6 172,53.1 172,50.1 C172,48 173.2,46.1 175.1,45.1 L202.5,31.9 C205.3,30.6 208.6,31.9 209.8,34.7 Z" id="Shape" fill="#5D6264"></path>
            <path d="M149.3,3.7 C168.1,50.7 168.1,103 149.3,150 C149.2,150.3 149,150.7 148.8,151 C147.1,153.6 143.7,154.3 141.2,152.6 L85.9,116.9 L75.6,116.9 L73.9,163.9 C73.9,165.1 73.7,166.2 73.5,167.4 C71.1,179.8 59.1,187.8 46.7,185.4 C34.3,183 26.3,171 28.7,158.6 L37,116.9 L23.8,116.9 C10.9,116.9 0.4,106.4 0.3,93.5 L0.3,60.3 C0.3,47.4 10.8,36.9 23.8,36.9 L85.8,36.9 L141.1,1.1 C141.4,0.9 141.7,0.7 142,0.6 C144.9,-0.5 148.1,0.9 149.3,3.7 Z M141.4,139.7 C156,99.1 156,54.7 141.4,14.1 L93.1,45.4 L93.1,108.3 L141.4,139.7 Z M82,105.9 L82,47.9 L61.4,47.9 L61.4,105.8 L82,105.8 L82,105.9 Z M62.9,163.4 L64.6,116.8 L48.2,116.8 L39.5,160.6 C39.4,161.2 39.3,161.7 39.3,162.3 C39,168.8 44.1,174.3 50.6,174.6 C57.1,175 62.6,169.9 62.9,163.4 Z M50.3,105.9 L50.3,47.9 L23.8,47.9 C16.9,47.9 11.4,53.5 11.4,60.3 L11.4,93.4 C11.4,100.3 17,105.8 23.8,105.8 L50.3,105.8 L50.3,105.9 Z" id="Shape" fill="#5D6264"></path>
            <path d="M141.4,14.1 C156,54.7 156,99.1 141.4,139.7 L93.1,108.4 L93.1,45.4 L141.4,14.1 Z" id="Shape" fill="#EFC419"></path>
            <rect id="Rectangle-path" fill="#EFC419" x="61.4" y="47.9" width="20.6" height="57.9"></rect>
            <path d="M64.6,116.9 L62.9,163.5 C62.6,170 57.1,175.1 50.6,174.8 C44.1,174.5 39.1,169 39.3,162.5 C39.3,161.9 39.4,161.3 39.5,160.8 L48.2,117 L64.6,117 L64.6,116.9 Z" id="Shape" fill="#EFC419"></path>
            <path d="M50.3,47.9 L50.3,105.8 L23.8,105.8 C16.9,105.8 11.4,100.2 11.4,93.4 L11.4,60.3 C11.4,53.5 17,47.9 23.8,47.9 L50.3,47.9 L50.3,47.9 Z" id="Shape" fill="#E87855"></path>
        </g>
    </g>
</svg>