<?xml version="1.0" encoding="UTF-8"?>
<svg width="157px" height="181px" viewBox="0 0 157 181" version="1.1" xmlns="http://www.w3.org/2000/svg" xmlns:xlink="http://www.w3.org/1999/xlink">
    <!-- Generator: Sketch 43.2 (39069) - http://www.bohemiancoding.com/sketch -->
    <title>member</title>
    <desc>Created with Sketch.</desc>
    <defs></defs>
    <g id="Page-1" stroke="none" stroke-width="1" fill="none" fill-rule="evenodd">
        <g id="member" fill-rule="nonzero">
            <polygon id="Shape" fill="#EA7750" points="26.59 123.09 0.85 174.56 142.38 174.56 116.65 123.09"></polygon>
            <path d="M78.92,7.28 C63.5631521,7.27734701 48.834519,13.3766561 37.9755876,24.2355876 C27.1166561,35.094519 21.017347,49.8231521 21.02,65.18 C21.02,103.58 78.92,148.81 78.92,148.81 C78.92,148.81 136.81,103.58 136.81,65.18 C136.812652,49.8248849 130.714716,35.0977677 119.857948,24.2391238 C109.001179,13.38048 94.2751154,7.27999977 78.92,7.28 M78.92,84.47 C68.2609043,84.47 59.62,75.8290957 59.62,65.17 C59.62,54.5109043 68.2609043,45.87 78.92,45.87 C89.5790957,45.87 98.22,54.5109043 98.22,65.17 C98.22,75.8290957 89.5790957,84.47 78.92,84.47" id="Shape" fill="#E2AC45"></path>
            <path d="M78.92,155.28 C77.4716694,155.289366 76.0624656,154.810237 74.92,153.92 C72.45,151.99 14.55,106.29 14.55,65.22 C14.5885796,29.7075145 43.3675145,0.928579595 78.88,0.89 C114.392485,0.928579595 143.17142,29.7075145 143.21,65.22 C143.21,106.28 85.31,151.99 82.84,153.92 C81.7191538,154.793381 80.340922,155.271543 78.92,155.28 Z M78.92,13.76 C50.5131333,13.7930633 27.4930633,36.8131333 27.46,65.22 C27.46,94.47 66.24,129.75 78.92,140.51 C91.61,129.75 130.38,94.51 130.38,65.22 C130.357958,36.8053231 107.334666,13.7730831 78.92,13.74 L78.92,13.76 Z" id="Shape" fill="#5C6569"></path>
            <path d="M78.92,90.94 C64.7165667,90.9234683 53.2065317,79.4134333 53.19,65.21 C53.2065317,51.0065667 64.7165667,39.4965317 78.92,39.48 C93.1312488,39.4799829 104.657933,50.9887683 104.68,65.2 C104.66896,79.419044 93.1390483,90.9400043 78.92,90.94 L78.92,90.94 Z M78.92,52.34 C71.8143808,52.3455146 66.0555146,58.1043808 66.05,65.21 C66.0555146,72.3156192 71.8143808,78.0744854 78.92,78.08 C86.0256192,78.0744854 91.7844854,72.3156192 91.79,65.21 C91.7844854,58.1043808 86.0256192,52.3455146 78.92,52.34 Z" id="Shape" fill="#5C6569"></path>
            <path d="M149.68,180.99 L8.16,180.99 C5.94118063,181.000767 3.87358819,179.866804 2.69,177.99 C1.51932842,176.092488 1.41340979,173.72445 2.41,171.73 L28.14,120.27 C29.2292381,118.091464 31.4543388,116.713836 33.89,116.71 L53.19,116.71 L53.19,129.58 L37.87,129.58 L18.57,168.18 L139.27,168.18 L119.97,129.58 L104.68,129.58 L104.68,116.71 L123.98,116.71 C126.415661,116.713836 128.640762,118.091464 129.73,120.27 L155.46,171.73 C156.45659,173.72445 156.350672,176.092488 155.18,177.99 C153.99077,179.875915 151.90946,181.011175 149.68,180.99 L149.68,180.99 Z" id="Shape" fill="#5C6569"></path>
        </g>
    </g>
</svg>