<?xml version="1.0" encoding="utf-8"?>
<!-- Generator: Adobe Illustrator 21.0.1, SVG Export Plug-In . SVG Version: 6.00 Build 0)  -->
<svg version="1.1" id="Layer_1" xmlns="http://www.w3.org/2000/svg" xmlns:xlink="http://www.w3.org/1999/xlink" x="0px" y="0px"
	 viewBox="0 0 231 234" style="enable-background:new 0 0 231 234;" xml:space="preserve">
<style type="text/css">
	.st0{fill:#5D6264;}
	.st1{fill:#E87855;}
	.st2{fill:#E1AC4F;}
	.st3{fill:#F3F1E5;}
	.st4{fill:#EFC419;}
	.st5{fill:#9CD8D5;}
	.st6{fill:#7E8588;}
	.st7{fill:#FFFFFF;}
	.st8{fill:#EFC41A;}
	.st9{fill-rule:evenodd;clip-rule:evenodd;fill:#FFFFFF;}
	.st10{fill-rule:evenodd;clip-rule:evenodd;fill:#5D6264;}
	.st11{opacity:0.48;}
	.st12{fill-rule:evenodd;clip-rule:evenodd;fill:#7E8588;}
	.st13{fill:#E6C045;}
	.st14{fill:#5D666A;}
	.st15{fill:none;stroke:#CFCFCE;stroke-width:0.5;stroke-miterlimit:10;}
	.st16{fill:#9AD7D4;}
	.st17{fill:#E87855;stroke:#5D666A;stroke-width:12;stroke-miterlimit:10;}
	.st18{fill:#9CD8D5;stroke:#5D666A;stroke-width:12;stroke-miterlimit:10;}
	.st19{fill:#EFC419;stroke:#5D666A;stroke-width:12;stroke-miterlimit:10;}
	.st20{fill:#9CD8D5;stroke:#5D6264;stroke-width:5;stroke-miterlimit:10;}
</style>
<g>
	<circle class="st5" cx="59.4" cy="68.3" r="12.8"/>
	<circle class="st5" cx="48.6" cy="149.5" r="12.8"/>
	<circle class="st5" cx="124.4" cy="182" r="12.8"/>
	<circle class="st1" cx="156.9" cy="52.1" r="12.8"/>
	<circle class="st5" cx="178.5" cy="154.9" r="12.8"/>
	<circle class="st4" cx="118.4" cy="119" r="21.6"/>
	<g>
		<path class="st0" d="M115.5,144.1c-14.9,0-27.1-12.1-27.1-27.1c0-14.9,12.1-27.1,27.1-27.1s27.1,12.1,27.1,27.1
			C142.6,131.9,130.4,144.1,115.5,144.1z M115.5,100.8c-9,0-16.2,7.3-16.2,16.2s7.3,16.2,16.2,16.2s16.2-7.3,16.2-16.2
			S124.5,100.8,115.5,100.8z M50.6,171.1c-11.9,0-21.7-9.7-21.7-21.7c0-11.9,9.7-21.7,21.7-21.7s21.7,9.7,21.7,21.7
			C72.2,161.4,62.5,171.1,50.6,171.1z M50.6,138.7c-6,0-10.8,4.9-10.8,10.8c0,6,4.9,10.8,10.8,10.8s10.8-4.9,10.8-10.8
			C61.4,143.5,56.5,138.7,50.6,138.7z M180.5,176.6c-11.9,0-21.7-9.7-21.7-21.7s9.7-21.7,21.7-21.7s21.7,9.7,21.7,21.7
			S192.4,176.6,180.5,176.6z M180.5,144.1c-6,0-10.8,4.9-10.8,10.8c0,6,4.9,10.8,10.8,10.8c6,0,10.8-4.9,10.8-10.8
			C191.3,148.9,186.4,144.1,180.5,144.1z M126.3,203.6c-11.9,0-21.7-9.7-21.7-21.7s9.7-21.7,21.7-21.7S148,170,148,182
			S138.3,203.6,126.3,203.6z M126.3,171.1c-6,0-10.8,4.9-10.8,10.8s4.9,10.8,10.8,10.8c6,0,10.8-4.9,10.8-10.8
			S132.3,171.1,126.3,171.1z M158.8,73.7c-11.9,0-21.7-9.7-21.7-21.7s9.7-21.7,21.7-21.7c11.9,0,21.7,9.7,21.7,21.7
			S170.8,73.7,158.8,73.7z M158.8,41.2c-6,0-10.8,4.9-10.8,10.8s4.9,10.8,10.8,10.8c6,0,10.8-4.9,10.8-10.8S164.8,41.2,158.8,41.2z
			 M61.4,89.9c-11.9,0-21.7-9.7-21.7-21.7s9.7-21.7,21.7-21.7S83,56.4,83,68.3S73.3,89.9,61.4,89.9z M61.4,57.5
			c-6,0-10.8,4.9-10.8,10.8c0,6,4.9,10.8,10.8,10.8s10.8-4.9,10.8-10.8S67.4,57.5,61.4,57.5z M123.6,171.1c-2.6,0-4.9-1.9-5.3-4.5
			l-4.5-27.2c-0.5-2.9,1.5-5.7,4.4-6.2c3-0.5,5.7,1.5,6.2,4.4l4.5,27.2c0.5,2.9-1.5,5.7-4.4,6.2L123.6,171.1z M65.2,147.6
			c-2,0-3.9-1.1-4.9-3c-1.3-2.7-0.2-5.9,2.4-7.3l31-15.5c2.7-1.3,5.9-0.2,7.3,2.4c1.3,2.7,0.3,5.9-2.4,7.3l-31,15.5
			C66.8,147.4,66,147.6,65.2,147.6z M98.4,107c-1.3,0-2.6-0.5-3.6-1.4L70.6,83.9c-2.2-2-2.4-5.4-0.4-7.6c2-2.2,5.4-2.4,7.6-0.4
			L102,97.5c2.2,2,2.4,5.4,0.4,7.6C101.3,106.4,99.8,107,98.4,107z M128.8,103.3c-1,0-2-0.3-3-0.9c-2.5-1.6-3.2-5-1.6-7.5l21.1-32.2
			c1.6-2.5,5-3.2,7.5-1.6c2.5,1.6,3.2,5,1.6,7.5l-21.1,32.2C132.3,102.4,130.6,103.3,128.8,103.3z M166.4,152.3
			c-0.9,0-1.8-0.2-2.7-0.7L131.3,133c-2.6-1.5-3.5-4.8-2-7.4c1.5-2.6,4.8-3.5,7.4-2l32.4,18.5c2.6,1.5,3.5,4.8,2,7.4
			C170.1,151.3,168.2,152.3,166.4,152.3z"/>
	</g>
</g>
</svg>
