<?xml version="1.0" encoding="UTF-8"?>
<svg width="175px" height="174px" viewBox="0 0 175 174" version="1.1" xmlns="http://www.w3.org/2000/svg" xmlns:xlink="http://www.w3.org/1999/xlink">
    <!-- Generator: Sketch 43.2 (39069) - http://www.bohemiancoding.com/sketch -->
    <title>network</title>
    <desc>Created with Sketch.</desc>
    <defs></defs>
    <g id="Page-1" stroke="none" stroke-width="1" fill="none" fill-rule="evenodd">
        <g id="network" fill-rule="nonzero">
            <circle id="Oval" fill="#9CD8D5" cx="31.4" cy="38.3" r="12.8"></circle>
            <circle id="Oval" fill="#9CD8D5" cx="20.6" cy="119.5" r="12.8"></circle>
            <circle id="Oval" fill="#9CD8D5" cx="96.4" cy="152" r="12.8"></circle>
            <circle id="Oval" fill="#E87855" cx="128.9" cy="22.1" r="12.8"></circle>
            <circle id="Oval" fill="#9CD8D5" cx="150.5" cy="124.9" r="12.8"></circle>
            <circle id="Oval" fill="#EFC419" cx="90.4" cy="89" r="21.6"></circle>
            <path d="M87.5,114.1 C72.6,114.1 60.4,102 60.4,87 C60.4,72.1 72.5,59.9 87.5,59.9 C102.5,59.9 114.6,72 114.6,87 C114.6,101.9 102.4,114.1 87.5,114.1 Z M87.5,70.8 C78.5,70.8 71.3,78.1 71.3,87 C71.3,95.9 78.6,103.2 87.5,103.2 C96.4,103.2 103.7,95.9 103.7,87 C103.7,78.1 96.5,70.8 87.5,70.8 Z M22.6,141.1 C10.7,141.1 0.9,131.4 0.9,119.4 C0.9,107.5 10.6,97.7 22.6,97.7 C34.6,97.7 44.3,107.4 44.3,119.4 C44.2,131.4 34.5,141.1 22.6,141.1 Z M22.6,108.7 C16.6,108.7 11.8,113.6 11.8,119.5 C11.8,125.5 16.7,130.3 22.6,130.3 C28.5,130.3 33.4,125.4 33.4,119.5 C33.4,113.5 28.5,108.7 22.6,108.7 Z M152.5,146.6 C140.6,146.6 130.8,136.9 130.8,124.9 C130.8,112.9 140.5,103.2 152.5,103.2 C164.5,103.2 174.2,112.9 174.2,124.9 C174.2,136.9 164.4,146.6 152.5,146.6 Z M152.5,114.1 C146.5,114.1 141.7,119 141.7,124.9 C141.7,130.9 146.6,135.7 152.5,135.7 C158.5,135.7 163.3,130.8 163.3,124.9 C163.3,118.9 158.4,114.1 152.5,114.1 Z M98.3,173.6 C86.4,173.6 76.6,163.9 76.6,151.9 C76.6,139.9 86.3,130.2 98.3,130.2 C110.3,130.2 120,140 120,152 C120,164 110.3,173.6 98.3,173.6 Z M98.3,141.1 C92.3,141.1 87.5,146 87.5,151.9 C87.5,157.8 92.4,162.7 98.3,162.7 C104.3,162.7 109.1,157.8 109.1,151.9 C109.1,146 104.3,141.1 98.3,141.1 Z M130.8,43.7 C118.9,43.7 109.1,34 109.1,22 C109.1,10 118.8,0.3 130.8,0.3 C142.7,0.3 152.5,10 152.5,22 C152.5,34 142.8,43.7 130.8,43.7 Z M130.8,11.2 C124.8,11.2 120,16.1 120,22 C120,27.9 124.9,32.8 130.8,32.8 C136.8,32.8 141.6,27.9 141.6,22 C141.6,16.1 136.8,11.2 130.8,11.2 Z M33.4,59.9 C21.5,59.9 11.7,50.2 11.7,38.2 C11.7,26.2 21.4,16.5 33.4,16.5 C45.4,16.5 55,26.4 55,38.3 C55,50.2 45.3,59.9 33.4,59.9 Z M33.4,27.5 C27.4,27.5 22.6,32.4 22.6,38.3 C22.6,44.3 27.5,49.1 33.4,49.1 C39.3,49.1 44.2,44.2 44.2,38.3 C44.2,32.4 39.4,27.5 33.4,27.5 Z M95.6,141.1 C93,141.1 90.7,139.2 90.3,136.6 L85.8,109.4 C85.3,106.5 87.3,103.7 90.2,103.2 C93.2,102.7 95.9,104.7 96.4,107.6 L100.9,134.8 C101.4,137.7 99.4,140.5 96.5,141 L95.6,141.1 Z M37.2,117.6 C35.2,117.6 33.3,116.5 32.3,114.6 C31,111.9 32.1,108.7 34.7,107.3 L65.7,91.8 C68.4,90.5 71.6,91.6 73,94.2 C74.3,96.9 73.3,100.1 70.6,101.5 L39.6,117 C38.8,117.4 38,117.6 37.2,117.6 Z M70.4,77 C69.1,77 67.8,76.5 66.8,75.6 L42.6,53.9 C40.4,51.9 40.2,48.5 42.2,46.3 C44.2,44.1 47.6,43.9 49.8,45.9 L74,67.5 C76.2,69.5 76.4,72.9 74.4,75.1 C73.3,76.4 71.8,77 70.4,77 Z M100.8,73.3 C99.8,73.3 98.8,73 97.8,72.4 C95.3,70.8 94.6,67.4 96.2,64.9 L117.3,32.7 C118.9,30.2 122.3,29.5 124.8,31.1 C127.3,32.7 128,36.1 126.4,38.6 L105.3,70.8 C104.3,72.4 102.6,73.3 100.8,73.3 Z M138.4,122.3 C137.5,122.3 136.6,122.1 135.7,121.6 L103.3,103 C100.7,101.5 99.8,98.2 101.3,95.6 C102.8,93 106.1,92.1 108.7,93.6 L141.1,112.1 C143.7,113.6 144.6,116.9 143.1,119.5 C142.1,121.3 140.2,122.3 138.4,122.3 Z" id="Shape" fill="#5D6264"></path>
        </g>
    </g>
</svg>