<?xml version="1.0" encoding="utf-8"?>
<!-- Generator: Adobe Illustrator 21.0.1, SVG Export Plug-In . SVG Version: 6.00 Build 0)  -->
<svg version="1.1" id="Layer_1" xmlns="http://www.w3.org/2000/svg" xmlns:xlink="http://www.w3.org/1999/xlink" x="0px" y="0px"
	 viewBox="0 0 231 234" style="enable-background:new 0 0 231 234;" xml:space="preserve">
<style type="text/css">
	.st0{fill:#5D6264;}
	.st1{fill:#E87855;}
	.st2{fill:#E1AC4F;}
	.st3{fill:#F3F1E5;}
	.st4{fill:#EFC419;}
	.st5{fill:#9CD8D5;}
	.st6{fill:#7E8588;}
	.st7{fill:#FFFFFF;}
	.st8{fill:#EFC41A;}
	.st9{fill-rule:evenodd;clip-rule:evenodd;fill:#FFFFFF;}
	.st10{fill-rule:evenodd;clip-rule:evenodd;fill:#5D6264;}
	.st11{opacity:0.48;}
	.st12{fill-rule:evenodd;clip-rule:evenodd;fill:#7E8588;}
	.st13{fill:#E6C045;}
	.st14{fill:#5D666A;}
	.st15{fill:none;stroke:#CFCFCE;stroke-width:0.5;stroke-miterlimit:10;}
	.st16{fill:#9AD7D4;}
	.st17{fill:#E87855;stroke:#5D666A;stroke-width:12;stroke-miterlimit:10;}
	.st18{fill:#9CD8D5;stroke:#5D666A;stroke-width:12;stroke-miterlimit:10;}
	.st19{fill:#EFC419;stroke:#5D666A;stroke-width:12;stroke-miterlimit:10;}
	.st20{fill:#9CD8D5;stroke:#5D6264;stroke-width:5;stroke-miterlimit:10;}
</style>
<g>
	<g>
		<path class="st3" d="M186,191.2H43.7c-7.1,0-12.9-5.8-12.9-12.9V61.8c0-7.1,5.8-12.9,12.9-12.9H186c7.1,0,12.9,5.8,12.9,12.9
			v116.4C198.9,185.4,193.1,191.1,186,191.2"/>
		<path class="st16" d="M30.8,81.2V61.8c0-7.1,5.8-12.9,12.9-12.9H186c7.1,0,12.9,5.8,12.9,12.9v19.4L30.8,81.2L30.8,81.2z"/>
		<path class="st14" d="M186,197.6H43.7c-10.7,0-19.4-8.7-19.4-19.4V61.8c0-10.7,8.7-19.4,19.4-19.4H186c10.7,0,19.4,8.7,19.4,19.4
			v116.4C205.4,188.9,196.7,197.6,186,197.6z M43.7,55.3c-3.6,0-6.5,2.9-6.5,6.5v116.4c0,3.6,2.9,6.5,6.5,6.5H186
			c3.6,0,6.5-2.9,6.5-6.5V61.8c0-3.6-2.9-6.5-6.5-6.5H43.7z"/>
		<path class="st14" d="M63.1,68.2c0,3.6-2.9,6.5-6.5,6.5s-6.5-2.9-6.5-6.5c0-3.6,2.9-6.5,6.5-6.5S63.1,64.7,63.1,68.2
			C63.1,68.2,63.1,68.2,63.1,68.2"/>
		<path class="st14" d="M82.5,68.2c0,3.6-2.9,6.5-6.5,6.5s-6.5-2.9-6.5-6.5c0-3.6,2.9-6.5,6.5-6.5S82.5,64.7,82.5,68.2
			C82.5,68.2,82.5,68.2,82.5,68.2"/>
		<path class="st14" d="M101.9,68.2c0,3.6-2.9,6.5-6.5,6.5S89,71.8,89,68.2c0-3.6,2.9-6.5,6.5-6.5C99,61.8,101.9,64.7,101.9,68.2"/>
		<rect x="30.8" y="81.2" class="st14" width="168.1" height="12.9"/>
		<path class="st14" d="M173,74.7h-51.7c-3.6,0-6.5-2.9-6.5-6.5s2.9-6.5,6.5-6.5c0,0,0,0,0,0H173c3.6,0,6.5,2.9,6.5,6.5
			C179.5,71.8,176.6,74.7,173,74.7C173,74.7,173,74.7,173,74.7"/>
		<rect x="50.2" y="107.1" class="st14" width="129.3" height="12.9"/>
		<rect x="50.2" y="126.5" class="st14" width="25.9" height="45.3"/>
		<rect x="82.5" y="126.5" class="st14" width="25.9" height="45.3"/>
		<rect x="114.8" y="126.5" class="st14" width="64.7" height="45.3"/>
	</g>
</g>
</svg>
