<?xml version="1.0" encoding="utf-8"?>
<!-- Generator: Adobe Illustrator 21.0.1, SVG Export Plug-In . SVG Version: 6.00 Build 0)  -->
<svg version="1.1" id="Layer_1" xmlns="http://www.w3.org/2000/svg" xmlns:xlink="http://www.w3.org/1999/xlink" x="0px" y="0px"
	 viewBox="0 0 231 234" style="enable-background:new 0 0 231 234;" xml:space="preserve">
<style type="text/css">
	.st0{fill:#5D6264;}
	.st1{fill:#E87855;}
	.st2{fill:#E1AC4F;}
	.st3{fill:#F3F1E5;}
	.st4{fill:#EFC419;}
	.st5{fill:#9CD8D5;}
	.st6{fill:#7E8588;}
	.st7{fill:#FFFFFF;}
	.st8{fill:#EFC41A;}
	.st9{fill-rule:evenodd;clip-rule:evenodd;fill:#FFFFFF;}
	.st10{fill-rule:evenodd;clip-rule:evenodd;fill:#5D6264;}
	.st11{opacity:0.48;}
	.st12{fill-rule:evenodd;clip-rule:evenodd;fill:#7E8588;}
	.st13{fill:#E6C045;}
	.st14{fill:#5D666A;}
	.st15{fill:none;stroke:#CFCFCE;stroke-width:0.5;stroke-miterlimit:10;}
	.st16{fill:#9AD7D4;}
	.st17{fill:#E87855;stroke:#5D666A;stroke-width:12;stroke-miterlimit:10;}
	.st18{fill:#9CD8D5;stroke:#5D666A;stroke-width:12;stroke-miterlimit:10;}
	.st19{fill:#EFC419;stroke:#5D666A;stroke-width:12;stroke-miterlimit:10;}
	.st20{fill:#9CD8D5;stroke:#5D6264;stroke-width:5;stroke-miterlimit:10;}
</style>
<g>
	<g id="XMLID_2_">
		<g>
			<path class="st0" d="M199.3,32.6c20.5,26.1,20.5,62.8,0,89c-2.6,3.3-7.4,3.9-10.7,1.2c-0.2-0.2-0.5-0.4-0.7-0.6l-0.2-0.2
				c-2.7-2.7-3-7.1-0.6-10.1c16.1-20.4,16.1-49.2,0-69.6c-2.3-3-2.1-7.3,0.6-10l0.2-0.2c2.9-3,7.8-3.1,10.8-0.2
				C198.9,32.1,199.1,32.4,199.3,32.6L199.3,32.6z"/>
			<path class="st0" d="M177.3,55.4c8.3,13.3,8.3,30.1,0,43.4c-2.3,3.5-7,4.5-10.5,2.2c-0.5-0.3-0.9-0.6-1.3-1l-0.4-0.5
				c-2.5-2.5-2.8-6.4-0.9-9.3c4.9-8.1,4.9-18.2,0-26.3c-1.8-2.9-1.5-6.7,0.9-9.2l0.4-0.4c2.9-3,7.7-3,10.7-0.1
				C176.6,54.5,177,54.9,177.3,55.4z"/>
			<path class="st0" d="M168.2,194c0.3,0.8,0.4,1.7,0.4,2.5c0,4.3-3.5,7.8-7.8,7.8H70.2c-2.5,0-4.9-1.2-6.3-3.3
				c-1.5-2-2-4.7-1.2-7.1l31-91.7c-1.2-1-2.3-2.1-3.3-3.3C78.3,85,79.7,64,93.6,52s34.9-10.5,46.9,3.3c12,13.9,10.6,34.9-3.3,46.9
				L168.2,194z M149.9,188.7l-5.5-16.2H86.6l-5.5,16.2H149.9z M139.2,156.8l-5.4-16H97.2l-5.4,16H139.2z M128.5,125.3l-5.3-15.8
				c-5.1,1.2-10.4,1.2-15.5,0l-5.3,15.8H128.5z"/>
			<polygon class="st5" points="144.4,172.5 149.9,188.7 81.1,188.7 86.6,172.5 			"/>
			<polygon class="st5" points="133.8,140.8 139.2,156.8 91.8,156.8 97.2,140.8 			"/>
			<path class="st5" d="M123.2,109.5l5.3,15.8h-26.1l5.3-15.8C112.8,110.7,118.2,110.7,123.2,109.5z"/>
			<path class="st0" d="M65.9,54.7c2.5,2.5,2.8,6.4,0.9,9.3c-4.9,8.1-4.9,18.2,0,26.3c1.9,2.9,1.5,6.8-0.9,9.3l-0.4,0.4
				c-2.9,3-7.7,3-10.7,0.1c-0.4-0.4-0.7-0.8-1-1.3c-8.3-13.3-8.3-30.1,0-43.4c2.3-3.5,7-4.5,10.5-2.2c0.4,0.3,0.9,0.6,1.2,1
				L65.9,54.7z"/>
			<path class="st0" d="M43.4,32.3c2.7,2.7,3,7,0.6,10.1C28,62.8,28,91.5,44.1,112c2.3,3,2.1,7.3-0.5,10l-0.2,0.2
				c-2.9,3.1-7.7,3.2-10.8,0.3c-0.3-0.3-0.5-0.6-0.8-0.9h0c-20.5-26.1-20.5-62.9,0-89c2.6-3.3,7.4-3.9,10.7-1.3
				c0.2,0.2,0.5,0.4,0.7,0.7L43.4,32.3z"/>
		</g>
	</g>
	<circle class="st1" cx="115.1" cy="77.5" r="18.6"/>
</g>
</svg>
