<?xml version="1.0" encoding="UTF-8"?>
<svg width="199px" height="176px" viewBox="0 0 199 176" version="1.1" xmlns="http://www.w3.org/2000/svg" xmlns:xlink="http://www.w3.org/1999/xlink">
    <!-- Generator: Sketch 43.2 (39069) - http://www.bohemiancoding.com/sketch -->
    <title>outreach</title>
    <desc>Created with Sketch.</desc>
    <defs></defs>
    <g id="Page-1" stroke="none" stroke-width="1" fill="none" fill-rule="evenodd">
        <g id="outreach" fill-rule="nonzero">
            <g id="XMLID_2_">
                <g id="Group">
                    <path d="M183.3,3.6 C203.8,29.7 203.8,66.4 183.3,92.6 C180.7,95.9 175.9,96.5 172.6,93.8 C172.4,93.6 172.1,93.4 171.9,93.2 L171.7,93 C169,90.3 168.7,85.9 171.1,82.9 C187.2,62.5 187.2,33.7 171.1,13.3 C168.8,10.3 169,6 171.7,3.3 L171.9,3.1 C174.8,0.1 179.7,8.10462808e-15 182.7,2.9 C182.9,3.1 183.1,3.4 183.3,3.6 L183.3,3.6 Z" id="Shape" fill="#5D6264"></path>
                    <path d="M161.3,26.4 C169.6,39.7 169.6,56.5 161.3,69.8 C159,73.3 154.3,74.3 150.8,72 C150.3,71.7 149.9,71.4 149.5,71 L149.1,70.5 C146.6,68 146.3,64.1 148.2,61.2 C153.1,53.1 153.1,43 148.2,34.9 C146.4,32 146.7,28.2 149.1,25.7 L149.5,25.3 C152.4,22.3 157.2,22.3 160.2,25.2 C160.6,25.5 161,25.9 161.3,26.4 Z" id="Shape" fill="#5D6264"></path>
                    <path d="M152.2,165 C152.5,165.8 152.6,166.7 152.6,167.5 C152.6,171.8 149.1,175.3 144.8,175.3 L54.2,175.3 C51.7,175.3 49.3,174.1 47.9,172 C46.4,170 45.9,167.3 46.7,164.9 L77.7,73.2 C76.5,72.2 75.4,71.1 74.4,69.9 C62.3,56 63.7,35 77.6,23 C91.5,11 112.5,12.5 124.5,26.3 C136.5,40.2 135.1,61.2 121.2,73.2 L152.2,165 Z M133.9,159.7 L128.4,143.5 L70.6,143.5 L65.1,159.7 L133.9,159.7 Z M123.2,127.8 L117.8,111.8 L81.2,111.8 L75.8,127.8 L123.2,127.8 Z M112.5,96.3 L107.2,80.5 C102.1,81.7 96.8,81.7 91.7,80.5 L86.4,96.3 L112.5,96.3 Z" id="Shape" fill="#5D6264"></path>
                    <polygon id="Shape" fill="#9CD8D5" points="128.4 143.5 133.9 159.7 65.1 159.7 70.6 143.5"></polygon>
                    <polygon id="Shape" fill="#9CD8D5" points="117.8 111.8 123.2 127.8 75.8 127.8 81.2 111.8"></polygon>
                    <path d="M107.2,80.5 L112.5,96.3 L86.4,96.3 L91.7,80.5 C96.8,81.7 102.2,81.7 107.2,80.5 Z" id="Shape" fill="#9CD8D5"></path>
                    <path d="M49.9,25.7 C52.4,28.2 52.7,32.1 50.8,35 C45.9,43.1 45.9,53.2 50.8,61.3 C52.7,64.2 52.3,68.1 49.9,70.6 L49.5,71 C46.6,74 41.8,74 38.8,71.1 C38.4,70.7 38.1,70.3 37.8,69.8 C29.5,56.5 29.5,39.7 37.8,26.4 C40.1,22.9 44.8,21.9 48.3,24.2 C48.7,24.5 49.2,24.8 49.5,25.2 L49.9,25.7 Z" id="Shape" fill="#5D6264"></path>
                    <path d="M27.4,3.3 C30.1,6 30.4,10.3 28,13.4 C12,33.8 12,62.5 28.1,83 C30.4,86 30.2,90.3 27.6,93 L27.4,93.2 C24.5,96.3 19.7,96.4 16.6,93.5 C16.3,93.2 16.1,92.9 15.8,92.6 L15.8,92.6 C-4.7,66.5 -4.7,29.7 15.8,3.6 C18.4,0.3 23.2,-0.3 26.5,2.3 C26.7,2.5 27,2.7 27.2,3 L27.4,3.3 Z" id="Shape" fill="#5D6264"></path>
                </g>
            </g>
            <circle id="Oval" fill="#E87855" cx="99.1" cy="48.5" r="18.6"></circle>
        </g>
    </g>
</svg>