<?xml version="1.0" encoding="UTF-8"?>
<svg width="207px" height="206px" viewBox="0 0 207 206" version="1.1" xmlns="http://www.w3.org/2000/svg" xmlns:xlink="http://www.w3.org/1999/xlink">
    <!-- Generator: Sketch 43.2 (39069) - http://www.bohemiancoding.com/sketch -->
    <title>student</title>
    <desc>Created with Sketch.</desc>
    <defs></defs>
    <g id="Page-1" stroke="none" stroke-width="1" fill="none" fill-rule="evenodd">
        <g id="student" fill-rule="nonzero">
            <circle id="Oval" stroke="#5D6264" stroke-width="5" fill="#9CD8D5" cx="103.5" cy="103" r="93.2"></circle>
            <polygon id="Shape" fill="#E87855" points="55 96.3 55 126.9 75.1 141.3 97.4 149.2 135.2 137.4 139.8 96.3"></polygon>
            <polygon id="Shape" fill="#EFC419" points="47.7 85.4 96.8 62.7 145.9 85.4 96.8 108"></polygon>
            <g id="Group" fill="#5D6264">
                <path d="M103.5,0.4 C46.8,0.4 0.9,46.6 0.9,103 C0.9,159.4 46.8,205.6 103.5,205.6 C160.2,205.6 206.1,159.7 206.1,103 C206.1,46.3 160.2,0.4 103.5,0.4 Z M10.1,103 C10.1,51.4 52.2,9.6 103.5,9.6 C154.8,9.6 196.9,51.3 196.9,103 C196.9,154.7 155.2,196.4 103.5,196.4 C51.8,196.4 10.1,154.6 10.1,103 Z" id="Shape"></path>
                <path d="M163.4,84.2 L163.4,83.9 L163.4,83.6 C163.1,83 163.1,82.6 162.4,82 C162.4,82 162.4,82 162.4,81.7 L162.1,81.4 L162.1,81.4 C161.8,81.1 161.1,80.8 160.5,80.4 L99.7,52 C98.4,51.4 96.8,51.4 95.6,52 L34.4,80.4 C32.5,81.4 31.5,82.9 31.5,84.9 C31.5,86.8 32.8,88.7 34.4,89.4 L55.4,99 L55.4,129.6 C55.4,142.3 73.6,151.9 97.8,151.9 C122,151.9 140.2,142.3 140.2,129.6 L140.2,99 L153.9,92.6 L153.9,135.3 C153.9,138.2 156.1,140.4 159,140.4 C161.9,140.4 164.1,138.2 164.1,135.3 L164.1,84.3 L164.1,84.3 C163.4,84.5 163.4,84.5 163.4,84.2 Z M97.5,142.2 C77.7,142.2 65.3,134.9 65.3,130.1 L65.3,104 L95.3,118 C95.9,118.3 96.6,118.3 97.5,118.3 C98.1,118.3 99.1,118.3 99.7,118 L129.7,104 L129.7,130.1 C129.6,134.9 116.9,142.2 97.5,142.2 Z M97.5,107.8 L48.4,85.2 L97.5,62.6 L146.6,85.2 L97.5,107.8 Z" id="Shape"></path>
            </g>
        </g>
    </g>
</svg>