<svg id="Layer_5" data-name="Layer 5" xmlns="http://www.w3.org/2000/svg" viewBox="0 0 180.99 180.99"><defs><style>.cls-1{fill:#fbfbfb;}.cls-2{fill:#e7c144;}.cls-3{fill:#5c6569;}.cls-4{fill:none;}</style></defs><title>calendar</title><path class="cls-1" d="M5530,275.21H5405.6a11.34,11.34,0,0,1-11.31-11.31V162.1a11.35,11.35,0,0,1,11.31-11.31H5530a11.35,11.35,0,0,1,11.31,11.31V263.9A11.34,11.34,0,0,1,5530,275.21" transform="translate(-5377.32 -116.86)"/><path class="cls-2" d="M5394.29,184.72V162.1a11.35,11.35,0,0,1,11.31-11.31H5530a11.35,11.35,0,0,1,11.31,11.31v22.62H5394.29Z" transform="translate(-5377.32 -116.86)"/><path class="cls-3" d="M5530,280.87H5405.6a17,17,0,0,1-17-17V162.1a17,17,0,0,1,17-17H5530a17,17,0,0,1,17,17V263.9A17,17,0,0,1,5530,280.87ZM5405.6,156.44a5.66,5.66,0,0,0-5.66,5.66V263.9a5.66,5.66,0,0,0,5.66,5.66H5530a5.66,5.66,0,0,0,5.66-5.66V162.1a5.66,5.66,0,0,0-5.66-5.66H5405.6Z" transform="translate(-5377.32 -116.86)"/><path class="cls-3" d="M5541.34,190.37H5394.29a5.66,5.66,0,1,1,0-11.31h147.05A5.66,5.66,0,1,1,5541.34,190.37Z" transform="translate(-5377.32 -116.86)"/><path class="cls-3" d="M5428.22,173.41a5.65,5.65,0,0,1-5.65-5.65V139.47a5.66,5.66,0,1,1,11.31,0v28.28A5.65,5.65,0,0,1,5428.22,173.41Z" transform="translate(-5377.32 -116.86)"/><path class="cls-3" d="M5507.41,173.41a5.65,5.65,0,0,1-5.66-5.65V139.47a5.66,5.66,0,1,1,11.31,0v28.28A5.66,5.66,0,0,1,5507.41,173.41Z" transform="translate(-5377.32 -116.86)"/><rect class="cls-3" x="62.21" y="84.83" width="11.31" height="11.31"/><rect class="cls-3" x="84.84" y="84.83" width="11.31" height="11.31"/><rect class="cls-3" x="107.46" y="84.83" width="11.31" height="11.31"/><rect class="cls-3" x="130.08" y="84.83" width="11.31" height="11.31"/><rect class="cls-3" x="39.59" y="107.45" width="11.31" height="11.31"/><rect class="cls-3" x="62.21" y="107.45" width="11.31" height="11.31"/><rect class="cls-3" x="84.84" y="107.45" width="11.31" height="11.31"/><rect class="cls-3" x="107.46" y="107.45" width="11.31" height="11.31"/><rect class="cls-3" x="130.08" y="107.45" width="11.31" height="11.31"/><rect class="cls-3" x="39.59" y="130.07" width="11.31" height="11.31"/><rect class="cls-3" x="62.21" y="130.07" width="11.31" height="11.31"/><rect class="cls-3" x="84.84" y="130.07" width="11.31" height="11.31"/><rect class="cls-3" x="107.46" y="130.07" width="11.31" height="11.31"/><rect class="cls-4" width="180.99" height="180.99"/></svg>