<svg id="Layer_5" data-name="Layer 5" xmlns="http://www.w3.org/2000/svg" viewBox="0 0 127.53 147.95">
  <defs>
    <style>
      .cls-1 {
        fill: #e7c144;
      }

      .cls-2 {
        fill: #e2ac45;
      }

      .cls-3 {
        fill: #5c6569;
      }
    </style>
  </defs>
  <title>find</title>
  <polygon class="cls-1" points="21.14 100.39 0 142.66 116.25 142.66 95.11 100.39 21.14 100.39"/>
  <path class="cls-2" d="M344.22,740.41A47.55,47.55,0,0,0,296.66,788c0,31.54,47.56,68.69,47.56,68.69S391.77,819.5,391.77,788a47.55,47.55,0,0,0-47.55-47.56m0,63.41A15.85,15.85,0,1,1,360.07,788a15.85,15.85,0,0,1-15.85,15.85" transform="translate(-280.09 -735.12)"/>
  <path class="cls-3" d="M344.22,861.94a5.29,5.29,0,0,1-3.25-1.12c-2-1.58-49.59-39.13-49.59-72.85a52.84,52.84,0,0,1,105.68,0c0,33.73-47.56,71.27-49.58,72.85A5.29,5.29,0,0,1,344.22,861.94Zm0-116.25A42.32,42.32,0,0,0,301.95,788c0,24,31.85,53,42.27,61.85C354.64,841,386.49,812,386.49,788A42.32,42.32,0,0,0,344.22,745.69Z" transform="translate(-280.09 -735.12)"/>
  <path class="cls-3" d="M344.22,809.1A21.14,21.14,0,1,1,365.35,788,21.16,21.16,0,0,1,344.22,809.1Zm0-31.7A10.57,10.57,0,1,0,354.79,788,10.58,10.58,0,0,0,344.22,777.39Z" transform="translate(-280.09 -735.12)"/>
  <path class="cls-3" d="M402.34,883.07H286.1a5.28,5.28,0,0,1-4.73-7.65l21.14-42.27a5.29,5.29,0,0,1,4.73-2.92h15.85V840.8H310.5l-15.85,31.7h99.14l-15.85-31.7H365.35V830.23h15.85a5.29,5.29,0,0,1,4.73,2.92l21.13,42.27A5.28,5.28,0,0,1,402.34,883.07Z" transform="translate(-280.09 -735.12)"/>
</svg>
