<svg id="Layer_6" data-name="Layer 6" xmlns="http://www.w3.org/2000/svg" viewBox="0 0 126.81 147.95">
  <defs>
    <style>
      .cls-1 {
        fill: #8eebdf;
      }

      .cls-2 {
        fill: #f2f1e4;
      }

      .cls-3 {
        fill: #5c6569;
      }
    </style>
  </defs>
  <title>hire</title>
  <path class="cls-1" d="M656.85,817v15.85a10.56,10.56,0,0,0,10.57,10.57H678a21.14,21.14,0,0,1,21.14,21.14v10.57H582.88V864.58A21.14,21.14,0,0,1,604,843.44h10.57a10.56,10.56,0,0,0,10.57-10.57V817h31.7Z" transform="translate(-577.59 -732.48)"/>
  <path class="cls-2" d="M672.7,780c0,23.34-14.19,42.27-31.7,42.27S609.3,803.38,609.3,780s14.19-42.27,31.7-42.27,31.7,18.93,31.7,42.27" transform="translate(-577.59 -732.48)"/>
  <path class="cls-3" d="M641,827.59c-20.4,0-37-21.33-37-47.55s16.59-47.55,37-47.55,37,21.33,37,47.55S661.4,827.59,641,827.59ZM641,743c-14.57,0-26.42,16.59-26.42,37s11.85,37,26.42,37,26.42-16.59,26.42-37S655.57,743,641,743Z" transform="translate(-577.59 -732.48)"/>
  <path class="cls-3" d="M699.12,880.43H582.88a5.28,5.28,0,0,1-5.28-5.28V864.58A26.45,26.45,0,0,1,604,838.16h10.57a5.29,5.29,0,0,0,5.29-5.28V817a5.28,5.28,0,1,1,10.57,0v15.85a15.87,15.87,0,0,1-15.85,15.85H604a15.87,15.87,0,0,0-15.85,15.85v5.28H693.84v-5.28A15.87,15.87,0,0,0,678,848.73H667.42a15.87,15.87,0,0,1-15.85-15.85V817a5.28,5.28,0,0,1,10.57,0v15.85a5.29,5.29,0,0,0,5.28,5.28H678a26.45,26.45,0,0,1,26.42,26.42v10.57A5.28,5.28,0,0,1,699.12,880.43Z" transform="translate(-577.59 -732.48)"/>
  <path class="cls-3" d="M641,859.3c-15.06,0-26.42-6.81-26.42-15.85a5.28,5.28,0,0,1,10.57,0c0,1.32,5.62,5.29,15.85,5.29s15.85-4,15.85-5.29a5.28,5.28,0,0,1,10.57,0C667.42,852.48,656.06,859.3,641,859.3Z" transform="translate(-577.59 -732.48)"/>
</svg>
