<svg id="Layer_6" data-name="Layer 6" xmlns="http://www.w3.org/2000/svg" viewBox="0 0 173.94 149.09">
  <defs>
    <style>
      .cls-1 {
        fill: #f2f1e4;
      }

      .cls-2 {
        fill: #8eebdf;
      }

      .cls-3 {
        fill: #5c6569;
      }
    </style>
  </defs>
  <title>job</title>
  <g>
    <path class="cls-1" d="M991.34,880.07H854.67a12.46,12.46,0,0,1-12.42-12.42V755.83a12.46,12.46,0,0,1,12.42-12.42H991.34a12.46,12.46,0,0,1,12.42,12.42V867.65a12.46,12.46,0,0,1-12.42,12.42" transform="translate(-836.04 -737.19)"/>
    <path class="cls-2" d="M842.25,774.47V755.83a12.46,12.46,0,0,1,12.42-12.42H991.34a12.46,12.46,0,0,1,12.42,12.42v18.64H842.25Z" transform="translate(-836.04 -737.19)"/>
    <path class="cls-3" d="M991.34,886.28H854.67A18.66,18.66,0,0,1,836,867.65V755.83a18.66,18.66,0,0,1,18.64-18.64H991.34A18.66,18.66,0,0,1,1010,755.83V867.65A18.66,18.66,0,0,1,991.34,886.28ZM854.67,749.62a6.22,6.22,0,0,0-6.21,6.21V867.65a6.22,6.22,0,0,0,6.21,6.21H991.34a6.22,6.22,0,0,0,6.21-6.21V755.83a6.22,6.22,0,0,0-6.21-6.21H854.67Z" transform="translate(-836.04 -737.19)"/>
    <path class="cls-3" d="M873.31,762a6.21,6.21,0,1,1-6.21-6.21,6.21,6.21,0,0,1,6.21,6.21" transform="translate(-836.04 -737.19)"/>
    <path class="cls-3" d="M891.95,762a6.21,6.21,0,1,1-6.21-6.21,6.21,6.21,0,0,1,6.21,6.21" transform="translate(-836.04 -737.19)"/>
    <path class="cls-3" d="M910.58,762a6.21,6.21,0,1,1-6.21-6.21,6.22,6.22,0,0,1,6.21,6.21" transform="translate(-836.04 -737.19)"/>
    <rect class="cls-3" x="6.21" y="37.27" width="161.51" height="12.42"/>
    <path class="cls-3" d="M978.91,768.26h-49.7a6.21,6.21,0,1,1,0-12.42h49.7a6.21,6.21,0,1,1,0,12.42" transform="translate(-836.04 -737.19)"/>
    <rect class="cls-3" x="24.85" y="62.12" width="124.24" height="12.43"/>
    <rect class="cls-3" x="24.85" y="80.76" width="24.85" height="43.48"/>
    <rect class="cls-3" x="55.91" y="80.76" width="24.85" height="43.48"/>
    <rect class="cls-3" x="86.97" y="80.76" width="62.12" height="43.48"/>
  </g>
</svg>
