<svg id="Layer_5" data-name="Layer 5" xmlns="http://www.w3.org/2000/svg" viewBox="0 0 338.19 238.92"><defs><style>.cls-1,.cls-2{fill:#fff;}.cls-2{fill-rule:evenodd;}</style></defs><title>logo-inverse</title><path class="cls-1" d="M827.13,1183.12c2.7-2.58,4.75-3.22,6.84-1.8,2.34,1.59,2.54,4.55.72,7.24a9.58,9.58,0,0,1-5.92,4.07l-0.48-1.71a7.79,7.79,0,0,0,5.07-3.35c1.23-1.82,1.1-3.66-.28-4.6s-2.45-.67-5,1.77c-2.79,2.66-4.77,3.41-7,1.89s-2.44-4.4-.7-7a8.55,8.55,0,0,1,4.89-3.64l0.58,1.69a7.2,7.2,0,0,0-4.12,2.91c-1.19,1.76-1,3.54.25,4.38S824.47,1185.67,827.13,1183.12Z" transform="translate(-748.51 -1126.91)"/><path class="cls-1" d="M843.67,1168.6l-2.84,2.78,4,4.13-1.32,1.29-11.46-11.7,4.38-4.29c2.64-2.59,5.75-2.89,8-.56C847,1162.79,846.16,1166.16,843.67,1168.6Zm-6.1-6.46-3,2.9,5,5.15,2.89-2.83c1.94-1.9,2.19-4.18.67-5.73S839.45,1160.28,837.57,1162.13Z" transform="translate(-748.51 -1126.91)"/><path class="cls-1" d="M868.67,1156.81l-7.42-2.82-3.95,2.51,3.42,5.37-1.56,1-8.79-13.81,5.94-3.78c3-1.93,6-1.54,7.62.95,1.47,2.31.74,4.65-1.17,6.43l7.83,2.94Zm-11.56-10-4.26,2.71,3.57,5.6,4.24-2.7c2.07-1.32,2.87-3.33,1.73-5.12S859.33,1145.37,857.1,1146.79Z" transform="translate(-748.51 -1126.91)"/><path class="cls-1" d="M874.34,1136l6.32,15.1-1.7.71-6.32-15.1Z" transform="translate(-748.51 -1126.91)"/><path class="cls-1" d="M898.62,1128.89l1.76-.39,3.54,16-1.44.32L889.25,1134l2.9,13.11-1.76.39-3.54-16,1.69-.37,12.91,10.59Z" transform="translate(-748.51 -1126.91)"/><path class="cls-1" d="M921.22,1143.85c-5.15-.08-8.27-3.88-8.19-8.58a8.22,8.22,0,0,1,8.35-8.36,8.63,8.63,0,0,1,6.07,2.27l-1.22,1.38a7,7,0,0,0-5-2c-3.63-.06-6.27,3-6.33,6.64-0.06,3.93,2.39,6.87,6.37,6.94a7.7,7.7,0,0,0,4.75-1.56l0.07-4.07-5-.08,0-1.66,6.76,0.11-0.11,6.53A9.92,9.92,0,0,1,921.22,1143.85Z" transform="translate(-748.51 -1126.91)"/><path class="cls-1" d="M951.95,1133.23l-9.67-2.2-1.3,5.7,8.65,2-0.37,1.64-8.65-2-1.58,7-1.8-.41,3.63-16,11.47,2.61Z" transform="translate(-748.51 -1126.91)"/><path class="cls-1" d="M965.45,1136.34l-6.2,15.16-1.71-.7,6.2-15.16Z" transform="translate(-748.51 -1126.91)"/><path class="cls-1" d="M986.53,1149.61l-8.5-5.25-2.94,4.76,7.61,4.69-0.88,1.43-7.61-4.69-3,4.88,8.6,5.31-0.88,1.43-10.17-6.28,8.6-13.94,10.08,6.22Z" transform="translate(-748.51 -1126.91)"/><path class="cls-1" d="M997.26,1155.86l1.35,1.26-10,10.72,6.74,6.29-1.17,1.25-8.09-7.55Z" transform="translate(-748.51 -1126.91)"/><path class="cls-1" d="M1003.22,1186.58l-3.26-4.66,13.42-9.39,3.26,4.66c3,4.22,2.09,9.16-1.7,11.81S1006.17,1190.8,1003.22,1186.58Zm12-8.41L1013,1175l-10.62,7.43,2.2,3.14c2.37,3.39,6.19,3.95,9.18,1.86S1017.61,1181.57,1015.24,1178.17Z" transform="translate(-748.51 -1126.91)"/><path class="cls-1" d="M843.59,1326.35c2.08,3.1,2.36,5.23.61,7.05-2,2-4.91,1.73-7.25-.52a9.58,9.58,0,0,1-3-6.53l1.77-.18a7.79,7.79,0,0,0,2.44,5.56c1.58,1.53,3.42,1.7,4.57.51s1.08-2.3-.89-5.21c-2.14-3.2-2.55-5.28-.67-7.23s4.75-1.66,7,.5a8.54,8.54,0,0,1,2.75,5.44l-1.76.28a7.19,7.19,0,0,0-2.17-4.56c-1.53-1.48-3.32-1.58-4.36-.5S841.53,1323.3,843.59,1326.35Z" transform="translate(-748.51 -1126.91)"/><path class="cls-1" d="M861.71,1331.62l-9.33,13.46-1.52-1.05,9.32-13.46Z" transform="translate(-748.51 -1126.91)"/><path class="cls-1" d="M881.42,1342.23l1.64,0.75-6.8,14.89-1.34-.61-4-16.6-5.58,12.21-1.64-.75,6.8-14.89,1.57,0.72,3.93,16.22Z" transform="translate(-748.51 -1126.91)"/><path class="cls-1" d="M896.38,1363.79a8.47,8.47,0,0,1,3.49-16.57,8.52,8.52,0,0,1,5.73,3.83l-1.51,1.07a7.12,7.12,0,0,0-4.58-3.24,6.77,6.77,0,0,0-2.73,13.24,7.11,7.11,0,0,0,5.65-1.24l0.95,1.41A8.52,8.52,0,0,1,896.38,1363.79Z" transform="translate(-748.51 -1126.91)"/><path class="cls-1" d="M926.48,1350.94l-10,.16,0.09,5.59,8.94-.15,0,1.68-8.94.15,0.09,5.73,10.1-.16,0,1.68-12,.2-0.27-16.37,11.84-.19Z" transform="translate(-748.51 -1126.91)"/><path class="cls-1" d="M950.16,1349.49l-1.5-.46c0.65-2.39,1.63-4,4.19-4.86s5.1,0.22,5.9,2.61c0.72,2.14,0,3.83-1.76,6.91l-2.72,4.76,7.7-2.6,0.51,1.5-10.16,3.43-0.43-1.27,3.7-6.44c1.55-2.74,2-4.14,1.49-5.59a2.93,2.93,0,0,0-3.87-1.79C951.56,1346.24,950.78,1347.48,950.16,1349.49Z" transform="translate(-748.51 -1126.91)"/><path class="cls-1" d="M978.13,1350.08c-3.45,2-7.4.06-9.53-3.69s-1.71-8.18,1.74-10.14,7.38-.05,9.51,3.71S981.56,1348.13,978.13,1350.08Zm-7.05-12.44c-2.5,1.42-2.61,4.86-.94,7.82s4.75,4.64,7.25,3.22,2.58-4.87.92-7.8S973.57,1336.22,971.07,1337.64Z" transform="translate(-748.51 -1126.91)"/><path class="cls-1" d="M984.72,1326.59l1-.8,9.71,12-1.33,1.08-8.58-10.63-1.69,2.52-1.21-.83Z" transform="translate(-748.51 -1126.91)"/><path class="cls-1" d="M994.27,1317.76l0.88-.92,11.15,10.71-1.19,1.23-9.85-9.47L993.9,1322l-1.3-.67Z" transform="translate(-748.51 -1126.91)"/><path class="cls-1" d="M935.42,1317.58l8.52-9.17-8.52-9.17H903.84v18.34h31.59Zm2.93-12.83v7.33l-2.93,3.16v-13.63Zm-32.81-.35v-3.15h28.17v3.15H905.54Zm0,6v-4h28.17v4H905.54Zm0,5.15v-3.15h28.17v3.15H905.54Zm-3-16.33h-4a3.42,3.42,0,0,0-3.42,3.42v11.51a3.42,3.42,0,0,0,3.42,3.42h4v-18.34Z" transform="translate(-748.51 -1126.91)"/><path class="cls-1" d="M784.46,1264.85a20.31,20.31,0,0,1-2.95,2.59,18.37,18.37,0,0,1-3.48,2,20.4,20.4,0,0,1-4.15,1.26,25.67,25.67,0,0,1-5,.44,21.14,21.14,0,0,1-8.27-1.58,18.38,18.38,0,0,1-6.45-4.48,20.58,20.58,0,0,1-4.19-7,26.48,26.48,0,0,1-1.5-9.15,25.25,25.25,0,0,1,1.55-9,20.55,20.55,0,0,1,4.36-7,19.46,19.46,0,0,1,6.72-4.54,22.5,22.5,0,0,1,8.64-1.61,37.93,37.93,0,0,1,13.87,3.11v9.8h-1.49a1.29,1.29,0,0,1-1.32-1.49q0-.73-0.33-6.64a26.62,26.62,0,0,0-10.73-2.09,18.91,18.91,0,0,0-7.28,1.37,16.29,16.29,0,0,0-5.71,3.9,17.83,17.83,0,0,0-3.73,6.14,23.18,23.18,0,0,0-1.34,8.09,23.9,23.9,0,0,0,1.32,8.23,17.76,17.76,0,0,0,3.65,6.13,15.81,15.81,0,0,0,5.51,3.84,17.59,17.59,0,0,0,6.89,1.34,25.25,25.25,0,0,0,4.16-.31,16.27,16.27,0,0,0,3.36-.92,15.15,15.15,0,0,0,2.86-1.5,21.59,21.59,0,0,0,2.61-2.09,2.4,2.4,0,0,1,.29-0.2,0.65,0.65,0,0,1,.32-0.08,0.71,0.71,0,0,1,.52.21Z" transform="translate(-748.51 -1126.91)"/><path class="cls-1" d="M825.74,1269.39v1.22h-4.35a1.79,1.79,0,0,1-.84-0.18,2.21,2.21,0,0,1-.69-0.61l-13.91-17.62a3.09,3.09,0,0,0-1.12-1A4.69,4.69,0,0,0,803,1251h-5.15v17.21l2,0.07,1.36,0,0.58,0a1.06,1.06,0,0,1,1.22,1.08v1.22H789.52v-1.22a1.06,1.06,0,0,1,1.22-1.08l0.58,0,1.36,0,2-.07v-38.56l-2-.07-1.36,0-0.58,0a1.06,1.06,0,0,1-1.22-1.08v-1.22h15.72q7.52,0,11.24,2.9t3.71,8.52a11.67,11.67,0,0,1-.86,4.54,10.64,10.64,0,0,1-2.47,3.61,13.15,13.15,0,0,1-3.88,2.55,17.26,17.26,0,0,1-5.13,1.3,5,5,0,0,1,1.32,1.23l13.06,16.41,1.1,0,0.8,0h0.39A1.06,1.06,0,0,1,825.74,1269.39ZM810,1247.94a11.15,11.15,0,0,0,3.87-2,8.56,8.56,0,0,0,2.41-3.1,9.68,9.68,0,0,0,.83-4.08q0-4.64-3-6.88t-8.84-2.24h-7.42v19h7A17.91,17.91,0,0,0,810,1247.94Z" transform="translate(-748.51 -1126.91)"/><path class="cls-1" d="M862.87,1227.18v9h-1.49a1.29,1.29,0,0,1-1.32-1.49l-0.24-4.9H840v17.56h17.28v2.55H840V1268h19.81l0.11-2.14q0.07-1.35.1-2c0-.41,0-0.67,0-0.79a1.29,1.29,0,0,1,1.32-1.49h1.49v9H831.66v-1.22a1.06,1.06,0,0,1,1.22-1.08l0.58,0,1.36,0,2-.07v-38.56l-2-.07-1.36,0-0.58,0a1.06,1.06,0,0,1-1.22-1.08v-1.22h31.21Z" transform="translate(-748.51 -1126.91)"/><path class="cls-1" d="M912.4,1269.2v1.41H901.8v-1.41a1.22,1.22,0,0,1,1.41-1.25l0.38,0,0.87-.06,1.55-.09-4.31-10.6-0.31-.79H880.68l-0.32.79-4.28,10.6,1.56,0.09,0.87,0.06,0.38,0a1.22,1.22,0,0,1,1.41,1.25v1.41H869.7v-1.41a1.15,1.15,0,0,1,1.18-1.23l2-.2,16.62-40.6h3.13l16.61,40.6,2,0.2A1.15,1.15,0,0,1,912.4,1269.2ZM881.63,1254h18.83l-8.55-21.16c-0.14-.34-0.29-0.74-0.43-1.18s-0.29-.92-0.43-1.4q-0.21.73-.43,1.4t-0.43,1.21Z" transform="translate(-748.51 -1126.91)"/><path class="cls-1" d="M946.84,1227.18v9h-1.49a1.29,1.29,0,0,1-1.32-1.49q0-.16-0.24-4.85H931.14v38.33l2,0.07,1.36,0,0.58,0a1.06,1.06,0,0,1,1.22,1.08v1.22H922.84v-1.22a1.06,1.06,0,0,1,1.22-1.08l0.58,0,1.36,0,2-.07v-38.33H915.3q-0.21,4.22-.24,4.85a1.29,1.29,0,0,1-1.32,1.49h-1.49v-9h34.6Z" transform="translate(-748.51 -1126.91)"/><path class="cls-1" d="M965,1229.5l-1.36,0-2,.07v38.56l2,0.07,1.36,0,0.58,0a1.06,1.06,0,0,1,1.22,1.08v1.22H953.33v-1.22a1.06,1.06,0,0,1,1.22-1.08l0.58,0,1.36,0,2-.07v-38.56l-2-.07-1.36,0-0.58,0a1.06,1.06,0,0,1-1.22-1.08v-1.22h13.51v1.22a1.06,1.06,0,0,1-1.22,1.08Z" transform="translate(-748.51 -1126.91)"/><path class="cls-1" d="M1016.61,1227.18v1.22a1.06,1.06,0,0,1-1.22,1.08l-0.41,0-0.8,0-1.16.06-16.92,41H993.3l-16.92-41-1.16-.06-0.81,0-0.41,0a1.06,1.06,0,0,1-1.22-1.08v-1.22h11.65v1.22a1.06,1.06,0,0,1-1.22,1.08l-0.5,0-1.18,0-1.87.07L993.79,1264a19.23,19.23,0,0,1,1,3,16.91,16.91,0,0,1,.89-3l14.11-34.43-1.87-.07-1.19,0-0.5,0a1.06,1.06,0,0,1-1.22-1.08v-1.22h11.65Z" transform="translate(-748.51 -1126.91)"/><path class="cls-1" d="M1053.07,1227.18v9h-1.49a1.29,1.29,0,0,1-1.32-1.49l-0.24-4.9H1030.2v17.56h17.28v2.55H1030.2V1268H1050l0.11-2.14q0.07-1.35.1-2c0-.41,0-0.67,0-0.79a1.29,1.29,0,0,1,1.32-1.49h1.49v9h-31.21v-1.22a1.06,1.06,0,0,1,1.22-1.08l0.58,0,1.36,0,2-.07v-38.56l-2-.07-1.36,0-0.58,0a1.06,1.06,0,0,1-1.22-1.08v-1.22h31.21Z" transform="translate(-748.51 -1126.91)"/><path class="cls-1" d="M1086.7,1257.94a14.1,14.1,0,0,1-.94,5.14,12,12,0,0,1-2.72,4.19,12.76,12.76,0,0,1-4.36,2.81,15.82,15.82,0,0,1-5.89,1,30,30,0,0,1-11.69-2.36V1259h1.49a1.29,1.29,0,0,1,1.32,1.49c0,0.08,0,.46.05,1.12s0.07,1.49.12,2.48l0.13,2.73a19.93,19.93,0,0,0,8.65,1.69,12.74,12.74,0,0,0,4.61-.78,10.07,10.07,0,0,0,3.43-2.13,9,9,0,0,0,2.14-3.21,10.68,10.68,0,0,0,.74-4,7,7,0,0,0-.94-3.79,8.09,8.09,0,0,0-2.47-2.49,16,16,0,0,0-3.49-1.67q-2-.69-4-1.32t-4-1.44a13.79,13.79,0,0,1-3.49-2,9.34,9.34,0,0,1-2.48-3.1,10.27,10.27,0,0,1-.94-4.65,11,11,0,0,1,.83-4.21,10.48,10.48,0,0,1,2.43-3.58,12,12,0,0,1,4-2.49,14.4,14.4,0,0,1,5.36-.94,28.22,28.22,0,0,1,11.22,2.52v8.91h-1.49a1.29,1.29,0,0,1-1.32-1.49l-0.29-5.77a20.71,20.71,0,0,0-8.1-1.56,11.88,11.88,0,0,0-4.17.67,8.72,8.72,0,0,0-3,1.84,7.83,7.83,0,0,0-1.85,2.7,8.39,8.39,0,0,0-.63,3.22,6.58,6.58,0,0,0,.94,3.65,8.44,8.44,0,0,0,2.47,2.46,16.05,16.05,0,0,0,3.49,1.7q1.94,0.69,4,1.37t4,1.49a14.5,14.5,0,0,1,3.49,2,9.38,9.38,0,0,1,2.47,3A9.59,9.59,0,0,1,1086.7,1257.94Z" transform="translate(-748.51 -1126.91)"/><polygon class="cls-2" points="193.41 67.78 191.2 76.26 185.17 76.26 185.02 72.02 156.88 72.02 156.88 52.96 150.56 43.13 150.53 38.52 175.65 38.52 178.17 40.23 179.07 46.04 193.41 67.78"/></svg>